<?xml version="1.0" encoding="utf-8"?>
<!-- Generator: Adobe Illustrator 22.0.1, SVG Export Plug-In . SVG Version: 6.00 Build 0)  -->
<svg width="128" height="128" viewBox="0 0 128 128" fill="none" xmlns="http://www.w3.org/2000/svg">
<g filter="url(#filter0_d)">
<path fill-rule="evenodd" clip-rule="evenodd" d="M64 122C97.1371 122 124 95.1371 124 62C124 28.8629 97.1371 2 64 2C30.8629 2 4 28.8629 4 62C4 95.1371 30.8629 122 64 122Z" fill="#A85490"/>
<mask id="mask0" mask-type="alpha" maskUnits="userSpaceOnUse" x="4" y="2" width="120" height="120">
<path fill-rule="evenodd" clip-rule="evenodd" d="M64 122C97.1371 122 124 95.1371 124 62C124 28.8629 97.1371 2 64 2C30.8629 2 4 28.8629 4 62C4 95.1371 30.8629 122 64 122Z" fill="white"/>
</mask>
<g mask="url(#mask0)">
<path fill-rule="evenodd" clip-rule="evenodd" d="M64.0003 109.755C86.0109 109.755 104.452 94.4724 109.291 73.9395C110.102 70.4994 110.531 66.9121 110.531 63.2245C110.531 37.5263 89.6985 16.6939 64.0003 16.6939C38.3022 16.6939 17.4697 37.5263 17.4697 63.2245C17.4697 88.9226 38.3022 109.755 64.0003 109.755Z" fill="black"/>
<path fill-rule="evenodd" clip-rule="evenodd" d="M64.0001 102.408C85.6406 102.408 103.184 84.8651 103.184 63.2245C103.184 41.584 85.6406 24.0408 64.0001 24.0408C42.3595 24.0408 24.8164 41.584 24.8164 63.2245C24.8164 84.8651 42.3595 102.408 64.0001 102.408Z" fill="#A85490"/>
<rect x="54.7051" y="52.7041" width="18.5918" height="18.5918" stroke="white"/>
<rect x="64.001" y="48.8536" width="18.5918" height="18.5918" transform="rotate(45 64.001 48.8536)" stroke="white"/>
<rect x="46.1338" y="44.1327" width="35.7347" height="35.7347" stroke="white"/>
<rect x="64.001" y="36.7318" width="35.7347" height="35.7347" transform="rotate(45 64.001 36.7318)" stroke="white"/>
<rect x="59.6025" y="57.6021" width="8.79592" height="8.79592" stroke="white"/>
<rect x="64.001" y="55.7803" width="8.79592" height="8.79592" transform="rotate(45 64.001 55.7803)" stroke="white"/>
</g>
</g>
<defs>
<filter id="filter0_d" x="0" y="0" width="128" height="128" filterUnits="userSpaceOnUse" color-interpolation-filters="sRGB">
<feFlood flood-opacity="0" result="BackgroundImageFix"/>
<feColorMatrix in="SourceAlpha" type="matrix" values="0 0 0 0 0 0 0 0 0 0 0 0 0 0 0 0 0 0 127 0"/>
<feOffset dy="2"/>
<feGaussianBlur stdDeviation="2"/>
<feColorMatrix type="matrix" values="0 0 0 0 0 0 0 0 0 0 0 0 0 0 0 0 0 0 0.5 0"/>
<feBlend mode="normal" in2="BackgroundImageFix" result="effect1_dropShadow"/>
<feBlend mode="normal" in="SourceGraphic" in2="effect1_dropShadow" result="shape"/>
</filter>
</defs>
</svg>
