<?xml version="1.0" encoding="utf-8"?>
<!-- Generator: Adobe Illustrator 22.0.1, SVG Export Plug-In . SVG Version: 6.00 Build 0)  -->
<svg width="128" height="128" viewBox="0 0 128 128" fill="none" xmlns="http://www.w3.org/2000/svg">
<g filter="url(#filter0_d)">
<path fill-rule="evenodd" clip-rule="evenodd" d="M64 122C97.1371 122 124 95.1371 124 62C124 28.8629 97.1371 2 64 2C30.8629 2 4 28.8629 4 62C4 95.1371 30.8629 122 64 122Z" fill="#FF8E6F"/>
<mask id="mask0" mask-type="alpha" maskUnits="userSpaceOnUse" x="4" y="2" width="120" height="120">
<path fill-rule="evenodd" clip-rule="evenodd" d="M64 122C97.1371 122 124 95.1371 124 62C124 28.8629 97.1371 2 64 2C30.8629 2 4 28.8629 4 62C4 95.1371 30.8629 122 64 122Z" fill="white"/>
</mask>
<g mask="url(#mask0)">
<path fill-rule="evenodd" clip-rule="evenodd" d="M64.0003 109.755C86.0109 109.755 104.452 94.4724 109.291 73.9395C110.102 70.4994 110.531 66.9121 110.531 63.2245C110.531 37.5263 89.6985 16.6939 64.0003 16.6939C38.3022 16.6939 17.4697 37.5263 17.4697 63.2245C17.4697 88.9226 38.3022 109.755 64.0003 109.755Z" fill="black"/>
<path fill-rule="evenodd" clip-rule="evenodd" d="M64.0001 102.408C85.6406 102.408 103.184 84.8651 103.184 63.2245C103.184 41.584 85.6406 24.0408 64.0001 24.0408C42.3595 24.0408 24.8164 41.584 24.8164 63.2245C24.8164 84.8651 42.3595 102.408 64.0001 102.408Z" fill="#FF8E6F"/>
<path fill-rule="evenodd" clip-rule="evenodd" d="M53.5925 50.1467C55.2831 50.1467 56.6537 48.7762 56.6537 47.0855C56.6537 45.3948 55.2831 44.0243 53.5925 44.0243C51.9018 44.0243 50.5312 45.3948 50.5312 47.0855C50.5312 48.7762 51.9018 50.1467 53.5925 50.1467Z" stroke="white"/>
<path fill-rule="evenodd" clip-rule="evenodd" d="M51.1433 61.1672C52.8339 61.1672 54.2045 59.7966 54.2045 58.1059C54.2045 56.4153 52.8339 55.0447 51.1433 55.0447C49.4526 55.0447 48.082 56.4153 48.082 58.1059C48.082 59.7966 49.4526 61.1672 51.1433 61.1672Z" stroke="white"/>
<path fill-rule="evenodd" clip-rule="evenodd" d="M40.1227 64.8406C41.8134 64.8406 43.184 63.4701 43.184 61.7794C43.184 60.0887 41.8134 58.7182 40.1227 58.7182C38.4321 58.7182 37.0615 60.0887 37.0615 61.7794C37.0615 63.4701 38.4321 64.8406 40.1227 64.8406Z" stroke="white"/>
<path fill-rule="evenodd" clip-rule="evenodd" d="M60.9392 57.4937C62.6298 57.4937 64.0004 56.1231 64.0004 54.4325C64.0004 52.7418 62.6298 51.3712 60.9392 51.3712C59.2485 51.3712 57.8779 52.7418 57.8779 54.4325C57.8779 56.1231 59.2485 57.4937 60.9392 57.4937Z" stroke="white"/>
<path fill-rule="evenodd" clip-rule="evenodd" d="M42.572 53.4286C44.2626 53.4286 45.6332 52.058 45.6332 50.3673C45.6332 48.6767 44.2626 47.3061 42.572 47.3061C40.8813 47.3061 39.5107 48.6767 39.5107 50.3673C39.5107 52.058 40.8813 53.4286 42.572 53.4286Z" fill="white" stroke="white"/>
<path fill-rule="evenodd" clip-rule="evenodd" d="M58.4899 68.1224C60.1806 68.1224 61.5512 66.7519 61.5512 65.0612C61.5512 63.3706 60.1806 62 58.4899 62C56.7993 62 55.4287 63.3706 55.4287 65.0612C55.4287 66.7519 56.7993 68.1224 58.4899 68.1224Z" stroke="white"/>
<path fill-rule="evenodd" clip-rule="evenodd" d="M58.4899 78.7512C60.1806 78.7512 61.5512 77.3806 61.5512 75.69C61.5512 73.9993 60.1806 72.6288 58.4899 72.6288C56.7993 72.6288 55.4287 73.9993 55.4287 75.69C55.4287 77.3806 56.7993 78.7512 58.4899 78.7512Z" stroke="white"/>
<path fill-rule="evenodd" clip-rule="evenodd" d="M46.2448 81.5918C47.9355 81.5918 49.306 80.2213 49.306 78.5306C49.306 76.8399 47.9355 75.4694 46.2448 75.4694C44.5542 75.4694 43.1836 76.8399 43.1836 78.5306C43.1836 80.2213 44.5542 81.5918 46.2448 81.5918Z" stroke="white"/>
<path fill-rule="evenodd" clip-rule="evenodd" d="M74.2746 66.8141C74.5391 68.484 76.1071 69.6233 77.777 69.3588C79.4469 69.0943 80.5861 67.5262 80.3217 65.8564C80.0572 64.1865 78.4891 63.0472 76.8192 63.3117C75.1494 63.5762 74.0101 65.1443 74.2746 66.8141Z" fill="white" stroke="white"/>
<path fill-rule="evenodd" clip-rule="evenodd" d="M82.8468 70.8792C83.1113 72.5491 84.6794 73.6884 86.3493 73.4239C88.0191 73.1594 89.1584 71.5913 88.8939 69.9215C88.6294 68.2516 87.0614 67.1124 85.3915 67.3768C83.7217 67.6413 82.5824 69.2094 82.8468 70.8792Z" stroke="white"/>
<path fill-rule="evenodd" clip-rule="evenodd" d="M44.8869 39.7763C45.1514 41.4461 46.7195 42.5854 48.3893 42.3209C50.0592 42.0565 51.1984 40.4884 50.934 38.8185C50.6695 37.1487 49.1014 36.0094 47.4315 36.2739C45.7617 36.5383 44.6224 38.1064 44.8869 39.7763Z" stroke="white"/>
<path fill-rule="evenodd" clip-rule="evenodd" d="M66.9279 35.3691C67.1924 37.0389 68.7605 38.1782 70.4303 37.9137C72.1002 37.6492 73.2395 36.0811 72.975 34.4113C72.7105 32.7414 71.1424 31.6022 69.4726 31.8666C67.8027 32.1311 66.6634 33.6992 66.9279 35.3691Z" stroke="white"/>
<path fill-rule="evenodd" clip-rule="evenodd" d="M67.0612 74.2449C68.7519 74.2449 70.1224 72.8743 70.1224 71.1837C70.1224 69.493 68.7519 68.1224 67.0612 68.1224C65.3706 68.1224 64 69.493 64 71.1837C64 72.8743 65.3706 74.2449 67.0612 74.2449Z" stroke="white"/>
<path fill-rule="evenodd" clip-rule="evenodd" d="M49.9186 72.1876C51.6093 72.1876 52.9799 70.817 52.9799 69.1263C52.9799 67.4357 51.6093 66.0651 49.9186 66.0651C48.228 66.0651 46.8574 67.4357 46.8574 69.1263C46.8574 70.817 48.228 72.1876 49.9186 72.1876Z" fill="white" stroke="white"/>
<path fill-rule="evenodd" clip-rule="evenodd" d="M76.382 56.1854C76.6465 57.8552 78.2146 58.9945 79.8844 58.73C81.5543 58.4655 82.6936 56.8975 82.4291 55.2276C82.1646 53.5578 80.5965 52.4185 78.9267 52.683C77.2568 52.9474 76.1175 54.5155 76.382 56.1854Z" stroke="white"/>
<path fill-rule="evenodd" clip-rule="evenodd" d="M71.8263 77.0017C72.0908 78.6716 73.6589 79.8109 75.3288 79.5464C76.9986 79.2819 78.1379 77.7138 77.8734 76.044C77.6089 74.3741 76.0408 73.2348 74.371 73.4993C72.7011 73.7638 71.5619 75.3319 71.8263 77.0017Z" stroke="white"/>
<path fill-rule="evenodd" clip-rule="evenodd" d="M80.9377 79.4507C81.2021 81.1205 82.7702 82.2598 84.4401 81.9953C86.1099 81.7309 87.2492 80.1628 86.9847 78.4929C86.7203 76.8231 85.1522 75.6838 83.4823 75.9483C81.8125 76.2128 80.6732 77.7808 80.9377 79.4507Z" stroke="white"/>
<path fill-rule="evenodd" clip-rule="evenodd" d="M36.3156 72.1037C36.5801 73.7736 38.1482 74.9129 39.818 74.6484C41.4879 74.3839 42.6271 72.8158 42.3627 71.146C42.0982 69.4761 40.5301 68.3368 38.8603 68.6013C37.1904 68.8658 36.0511 70.4339 36.3156 72.1037Z" stroke="white"/>
<path fill-rule="evenodd" clip-rule="evenodd" d="M63.2551 83.1242C63.5195 84.794 65.0876 85.9333 66.7575 85.6688C68.4273 85.4043 69.5666 83.8362 69.3021 82.1664C69.0376 80.4965 67.4696 79.3573 65.7997 79.6217C64.1299 79.8862 62.9906 81.4543 63.2551 83.1242Z" fill="white" stroke="white"/>
<path fill-rule="evenodd" clip-rule="evenodd" d="M52.2345 85.5731C52.499 87.243 54.0671 88.3823 55.737 88.1178C57.4068 87.8533 58.5461 86.2852 58.2816 84.6154C58.0171 82.9455 56.4491 81.8062 54.7792 82.0707C53.1093 82.3352 51.9701 83.9033 52.2345 85.5731Z" stroke="white"/>
<path fill-rule="evenodd" clip-rule="evenodd" d="M72.7082 85.5731C72.9727 87.243 74.5407 88.3823 76.2106 88.1178C77.8804 87.8533 79.0197 86.2852 78.7552 84.6154C78.4908 82.9455 76.9227 81.8062 75.2528 82.0707C73.583 82.3352 72.4437 83.9033 72.7082 85.5731Z" stroke="white"/>
<path fill-rule="evenodd" clip-rule="evenodd" d="M82.8468 48.8384C83.1113 50.5083 84.6794 51.6476 86.3493 51.3831C88.0191 51.1186 89.1584 49.5505 88.8939 47.8807C88.6294 46.2108 87.0614 45.0715 85.3915 45.336C83.7217 45.6005 82.5824 47.1686 82.8468 48.8384Z" stroke="white"/>
<path fill-rule="evenodd" clip-rule="evenodd" d="M55.9074 37.3273C56.1719 38.9972 57.74 40.1364 59.4098 39.872C61.0797 39.6075 62.2189 38.0394 61.9545 36.3695C61.69 34.6997 60.1219 33.5604 58.452 33.8249C56.7822 34.0894 55.6429 35.6575 55.9074 37.3273Z" stroke="white"/>
<path fill-rule="evenodd" clip-rule="evenodd" d="M84.9533 61.0833C85.2178 62.7532 86.7859 63.8925 88.4557 63.628C90.1256 63.3635 91.2648 61.7954 91.0004 60.1256C90.7359 58.4557 89.1678 57.3165 87.4979 57.5809C85.8281 57.8454 84.6888 59.4135 84.9533 61.0833Z" stroke="white"/>
<path fill-rule="evenodd" clip-rule="evenodd" d="M68.1525 52.1203C68.417 53.7901 69.9851 54.9294 71.6549 54.6649C73.3248 54.4005 74.4641 52.8324 74.1996 51.1625C73.9351 49.4927 72.367 48.3534 70.6972 48.6179C69.0273 48.8823 67.888 50.4504 68.1525 52.1203Z" stroke="white"/>
<path fill-rule="evenodd" clip-rule="evenodd" d="M62.0304 45.5566C62.2949 47.2265 63.863 48.3657 65.5329 48.1013C67.2027 47.8368 68.342 46.2687 68.0775 44.5989C67.813 42.929 66.2449 41.7897 64.5751 42.0542C62.9052 42.3187 61.766 43.8868 62.0304 45.5566Z" fill="white" stroke="white"/>
<path fill-rule="evenodd" clip-rule="evenodd" d="M65.7033 61.0833C65.9678 62.7532 67.5359 63.8925 69.2057 63.628C70.8756 63.3635 72.0148 61.7954 71.7504 60.1256C71.4859 58.4557 69.9178 57.3165 68.2479 57.5809C66.5781 57.8454 65.4388 59.4135 65.7033 61.0833Z" fill="white" stroke="white"/>
<path fill-rule="evenodd" clip-rule="evenodd" d="M74.2746 42.716C74.5391 44.3858 76.1071 45.5251 77.777 45.2606C79.4469 44.9962 80.5861 43.4281 80.3217 41.7582C80.0572 40.0884 78.4891 38.9491 76.8192 39.2136C75.1494 39.478 74.0101 41.0461 74.2746 42.716Z" fill="white" stroke="white"/>
</g>
</g>
<defs>
<filter id="filter0_d" x="0" y="0" width="128" height="128" filterUnits="userSpaceOnUse" color-interpolation-filters="sRGB">
<feFlood flood-opacity="0" result="BackgroundImageFix"/>
<feColorMatrix in="SourceAlpha" type="matrix" values="0 0 0 0 0 0 0 0 0 0 0 0 0 0 0 0 0 0 127 0"/>
<feOffset dy="2"/>
<feGaussianBlur stdDeviation="2"/>
<feColorMatrix type="matrix" values="0 0 0 0 0 0 0 0 0 0 0 0 0 0 0 0 0 0 0.5 0"/>
<feBlend mode="normal" in2="BackgroundImageFix" result="effect1_dropShadow"/>
<feBlend mode="normal" in="SourceGraphic" in2="effect1_dropShadow" result="shape"/>
</filter>
</defs>
</svg>
