<?xml version="1.0" encoding="utf-8"?>
<!-- Generator: Adobe Illustrator 22.0.1, SVG Export Plug-In . SVG Version: 6.00 Build 0)  -->
<svg width="128" height="128" viewBox="0 0 128 128" fill="none" xmlns="http://www.w3.org/2000/svg">
<g filter="url(#filter0_d)">
<path fill-rule="evenodd" clip-rule="evenodd" d="M64 122C97.1371 122 124 95.1371 124 62C124 28.8629 97.1371 2 64 2C30.8629 2 4 28.8629 4 62C4 95.1371 30.8629 122 64 122Z" fill="#E36983"/>
<mask id="mask0" mask-type="alpha" maskUnits="userSpaceOnUse" x="4" y="2" width="120" height="120">
<path fill-rule="evenodd" clip-rule="evenodd" d="M64 122C97.1371 122 124 95.1371 124 62C124 28.8629 97.1371 2 64 2C30.8629 2 4 28.8629 4 62C4 95.1371 30.8629 122 64 122Z" fill="white"/>
</mask>
<g mask="url(#mask0)">
<path fill-rule="evenodd" clip-rule="evenodd" d="M64.0003 109.755C86.0109 109.755 104.452 94.4724 109.291 73.9395C110.102 70.4994 110.531 66.9121 110.531 63.2245C110.531 37.5263 89.6985 16.6939 64.0003 16.6939C38.3022 16.6939 17.4697 37.5263 17.4697 63.2245C17.4697 88.9226 38.3022 109.755 64.0003 109.755Z" fill="black"/>
<path fill-rule="evenodd" clip-rule="evenodd" d="M64.0001 102.408C85.6406 102.408 103.184 84.8651 103.184 63.2245C103.184 41.584 85.6406 24.0408 64.0001 24.0408C42.3595 24.0408 24.8164 41.584 24.8164 63.2245C24.8164 84.8651 42.3595 102.408 64.0001 102.408Z" fill="#E36983"/>
<path fill-rule="evenodd" clip-rule="evenodd" d="M75.9779 55.2687C76.5068 58.6084 79.643 60.887 82.9827 60.358C86.3224 59.8291 88.601 56.6929 88.072 53.3532C87.5431 50.0135 84.4069 47.7349 81.0672 48.2639C77.7275 48.7928 75.4489 51.929 75.9779 55.2687Z" stroke="white"/>
<path fill-rule="evenodd" clip-rule="evenodd" d="M75.9779 83.432C76.5068 86.7717 79.643 89.0503 82.9827 88.5213C86.3224 87.9923 88.601 84.8562 88.072 81.5165C87.5431 78.1768 84.4069 75.8982 81.0672 76.4272C77.7275 76.9561 75.4489 80.0923 75.9779 83.432Z" stroke="white"/>
<path fill-rule="evenodd" clip-rule="evenodd" d="M41.6917 72.4116C42.2207 75.7513 45.3569 78.0298 48.6966 77.5009C52.0363 76.9719 54.3148 73.8358 53.7859 70.496C53.2569 67.1563 50.1208 64.8778 46.7811 65.4067C43.4413 65.9357 41.1628 69.0719 41.6917 72.4116Z" stroke="white"/>
<path fill-rule="evenodd" clip-rule="evenodd" d="M41.6917 43.0238C42.2207 46.3635 45.3569 48.6421 48.6966 48.1131C52.0363 47.5842 54.3148 44.448 53.7859 41.1083C53.2569 37.7686 50.1208 35.49 46.7811 36.019C43.4413 36.5479 41.1628 39.6841 41.6917 43.0238Z" stroke="white"/>
<path d="M59.9114 44.1084L72.3844 50.1919" stroke="white" stroke-linecap="square"/>
<path d="M72.3701 49.8813L70.6787 44.9692" stroke="white" stroke-linecap="square" stroke-linejoin="round"/>
<path d="M72.1654 50.6727L67.1513 51.4968" stroke="white" stroke-linecap="square" stroke-linejoin="round"/>
<path d="M58.6868 75.9451L71.1598 82.0286" stroke="white" stroke-linecap="square"/>
<path d="M71.1454 81.718L69.4541 76.806" stroke="white" stroke-linecap="square" stroke-linejoin="round"/>
<path d="M70.9408 82.5095L65.9266 83.3336" stroke="white" stroke-linecap="square" stroke-linejoin="round"/>
<path d="M72.6834 60.0267L60.2103 66.1102" stroke="white" stroke-linecap="square"/>
<path d="M60.2247 65.7996L61.916 60.8876" stroke="white" stroke-linecap="square" stroke-linejoin="round"/>
<path d="M60.4294 66.5911L65.4435 67.4152" stroke="white" stroke-linecap="square" stroke-linejoin="round"/>
</g>
</g>
<defs>
<filter id="filter0_d" x="0" y="0" width="128" height="128" filterUnits="userSpaceOnUse" color-interpolation-filters="sRGB">
<feFlood flood-opacity="0" result="BackgroundImageFix"/>
<feColorMatrix in="SourceAlpha" type="matrix" values="0 0 0 0 0 0 0 0 0 0 0 0 0 0 0 0 0 0 127 0"/>
<feOffset dy="2"/>
<feGaussianBlur stdDeviation="2"/>
<feColorMatrix type="matrix" values="0 0 0 0 0 0 0 0 0 0 0 0 0 0 0 0 0 0 0.5 0"/>
<feBlend mode="normal" in2="BackgroundImageFix" result="effect1_dropShadow"/>
<feBlend mode="normal" in="SourceGraphic" in2="effect1_dropShadow" result="shape"/>
</filter>
</defs>
</svg>
