<?xml version="1.0" encoding="utf-8"?>
<!-- Generator: Adobe Illustrator 22.0.1, SVG Export Plug-In . SVG Version: 6.00 Build 0)  -->
<svg width="34" height="34" viewBox="0 0 34 34" fill="none" xmlns="http://www.w3.org/2000/svg">
<path fill-rule="evenodd" clip-rule="evenodd" d="M17 33C25.8366 33 33 25.8366 33 17C33 8.16344 25.8366 1 17 1C8.16344 1 1 8.16344 1 17C1 25.8366 8.16344 33 17 33Z" fill="black" stroke="white"/>
<path fill-rule="evenodd" clip-rule="evenodd" d="M16.9999 31.0799C24.7761 31.0799 31.0799 24.7761 31.0799 16.9999C31.0799 9.22375 24.7761 2.91992 16.9999 2.91992C9.22375 2.91992 2.91992 9.22375 2.91992 16.9999C2.91992 24.7761 9.22375 31.0799 16.9999 31.0799Z" fill="black" stroke="white"/>
<path fill-rule="evenodd" clip-rule="evenodd" d="M17 28.5205C23.3623 28.5205 28.52 23.3628 28.52 17.0005C28.52 10.6381 23.3623 5.48047 17 5.48047C10.6377 5.48047 5.47998 10.6381 5.47998 17.0005C5.47998 23.3628 10.6377 28.5205 17 28.5205Z" fill="black" stroke="white"/>
<path fill-rule="evenodd" clip-rule="evenodd" d="M17 25.9591C21.9485 25.9591 25.96 21.9475 25.96 16.9991C25.96 12.0506 21.9485 8.03906 17 8.03906C12.0516 8.03906 8.04004 12.0506 8.04004 16.9991C8.04004 21.9475 12.0516 25.9591 17 25.9591Z" fill="black" stroke="white"/>
<path fill-rule="evenodd" clip-rule="evenodd" d="M17.0001 23.3996C20.5347 23.3996 23.4001 20.5342 23.4001 16.9996C23.4001 13.465 20.5347 10.5996 17.0001 10.5996C13.4655 10.5996 10.6001 13.465 10.6001 16.9996C10.6001 20.5342 13.4655 23.3996 17.0001 23.3996Z" fill="black" stroke="white"/>
<path fill-rule="evenodd" clip-rule="evenodd" d="M16.9999 19.5595C18.4138 19.5595 19.5599 18.4133 19.5599 16.9995C19.5599 15.5856 18.4138 14.4395 16.9999 14.4395C15.5861 14.4395 14.4399 15.5856 14.4399 16.9995C14.4399 18.4133 15.5861 19.5595 16.9999 19.5595Z" fill="black" stroke="white"/>
</svg>
