<?xml version="1.0" encoding="utf-8"?>
<!-- Generator: Adobe Illustrator 22.0.1, SVG Export Plug-In . SVG Version: 6.00 Build 0)  -->
<svg width="42" height="42" viewBox="0 0 42 42" fill="none" xmlns="http://www.w3.org/2000/svg">
<path fill-rule="evenodd" clip-rule="evenodd" d="M21 42C32.598 42 42 32.598 42 21C42 9.40202 32.598 0 21 0C9.40202 0 0 9.40202 0 21C0 32.598 9.40202 42 21 42Z" fill="#CDCDCD"/>
<mask id="mask0" mask-type="alpha" maskUnits="userSpaceOnUse" x="0" y="0" width="42" height="42">
<path fill-rule="evenodd" clip-rule="evenodd" d="M21 42C32.598 42 42 32.598 42 21C42 9.40202 32.598 0 21 0C9.40202 0 0 9.40202 0 21C0 32.598 9.40202 42 21 42Z" fill="white"/>
</mask>
<g mask="url(#mask0)">
<path fill-rule="evenodd" clip-rule="evenodd" d="M20.9996 37.714C28.7033 37.714 35.1577 32.3651 36.8514 25.1785C37.1352 23.9745 37.2853 22.7189 37.2853 21.4283C37.2853 12.4339 29.9939 5.14258 20.9996 5.14258C12.0052 5.14258 4.71387 12.4339 4.71387 21.4283C4.71387 30.4226 12.0052 37.714 20.9996 37.714Z" fill="black"/>
<path fill-rule="evenodd" clip-rule="evenodd" d="M21.0004 35.1434C28.5746 35.1434 34.7147 29.0033 34.7147 21.4291C34.7147 13.8549 28.5746 7.71484 21.0004 7.71484C13.4262 7.71484 7.28613 13.8549 7.28613 21.4291C7.28613 29.0033 13.4262 35.1434 21.0004 35.1434Z" fill="#989898"/>
<rect x="18.0713" y="18.0723" width="5.85714" height="5.85714" stroke="white"/>
<rect x="21" y="16.8595" width="5.85714" height="5.85714" transform="rotate(45 21 16.8595)" stroke="white"/>
<rect x="15.0713" y="15.0723" width="11.8571" height="11.8571" stroke="white"/>
<rect x="21" y="12.6173" width="11.8571" height="11.8571" transform="rotate(45 21 12.6173)" stroke="white"/>
<rect x="19.7852" y="19.7871" width="2.42857" height="2.42857" stroke="white"/>
<rect x="21" y="19.2852" width="2.42857" height="2.42857" transform="rotate(45 21 19.2852)" stroke="white"/>
</g>
</svg>
