<?xml version="1.0" encoding="utf-8"?>
<!-- Generator: Adobe Illustrator 22.0.1, SVG Export Plug-In . SVG Version: 6.00 Build 0)  -->
<svg width="42" height="42" viewBox="0 0 42 42" fill="none" xmlns="http://www.w3.org/2000/svg">
<path fill-rule="evenodd" clip-rule="evenodd" d="M21 42C32.598 42 42 32.598 42 21C42 9.40202 32.598 0 21 0C9.40202 0 0 9.40202 0 21C0 32.598 9.40202 42 21 42Z" fill="#CDCDCD"/>
<mask id="mask0" mask-type="alpha" maskUnits="userSpaceOnUse" x="0" y="0" width="42" height="42">
<path fill-rule="evenodd" clip-rule="evenodd" d="M21 42C32.598 42 42 32.598 42 21C42 9.40202 32.598 0 21 0C9.40202 0 0 9.40202 0 21C0 32.598 9.40202 42 21 42Z" fill="white"/>
</mask>
<g mask="url(#mask0)">
<path fill-rule="evenodd" clip-rule="evenodd" d="M20.9996 37.714C28.7033 37.714 35.1577 32.3651 36.8514 25.1785C37.1352 23.9745 37.2853 22.7189 37.2853 21.4283C37.2853 12.4339 29.9939 5.14258 20.9996 5.14258C12.0052 5.14258 4.71387 12.4339 4.71387 21.4283C4.71387 30.4226 12.0052 37.714 20.9996 37.714Z" fill="black" stroke="black"/>
<path fill-rule="evenodd" clip-rule="evenodd" d="M21.0004 35.1434C28.5746 35.1434 34.7147 29.0033 34.7147 21.4291C34.7147 13.8549 28.5746 7.71484 21.0004 7.71484C13.4262 7.71484 7.28613 13.8549 7.28613 21.4291C7.28613 29.0033 13.4262 35.1434 21.0004 35.1434Z" fill="#989898"/>
<path fill-rule="evenodd" clip-rule="evenodd" d="M17.3566 16.8499C17.9483 16.8499 18.428 16.3702 18.428 15.7785C18.428 15.1867 17.9483 14.707 17.3566 14.707C16.7649 14.707 16.2852 15.1867 16.2852 15.7785C16.2852 16.3702 16.7649 16.8499 17.3566 16.8499Z" stroke="white"/>
<path fill-rule="evenodd" clip-rule="evenodd" d="M16.5001 20.7073C17.0919 20.7073 17.5716 20.2276 17.5716 19.6359C17.5716 19.0441 17.0919 18.5645 16.5001 18.5645C15.9084 18.5645 15.4287 19.0441 15.4287 19.6359C15.4287 20.2276 15.9084 20.7073 16.5001 20.7073Z" stroke="white"/>
<path fill-rule="evenodd" clip-rule="evenodd" d="M12.6427 21.9944C13.2345 21.9944 13.7141 21.5147 13.7141 20.923C13.7141 20.3313 13.2345 19.8516 12.6427 19.8516C12.051 19.8516 11.5713 20.3313 11.5713 20.923C11.5713 21.5147 12.051 21.9944 12.6427 21.9944Z" stroke="white"/>
<path fill-rule="evenodd" clip-rule="evenodd" d="M19.9279 19.4222C20.5196 19.4222 20.9993 18.9425 20.9993 18.3507C20.9993 17.759 20.5196 17.2793 19.9279 17.2793C19.3361 17.2793 18.8564 17.759 18.8564 18.3507C18.8564 18.9425 19.3361 19.4222 19.9279 19.4222Z" stroke="white"/>
<path fill-rule="evenodd" clip-rule="evenodd" d="M13.5001 18.0003C14.0919 18.0003 14.5716 17.5206 14.5716 16.9289C14.5716 16.3371 14.0919 15.8574 13.5001 15.8574C12.9084 15.8574 12.4287 16.3371 12.4287 16.9289C12.4287 17.5206 12.9084 18.0003 13.5001 18.0003Z" fill="white" stroke="white"/>
<path fill-rule="evenodd" clip-rule="evenodd" d="M19.0714 23.1429C19.6632 23.1429 20.1429 22.6632 20.1429 22.0714C20.1429 21.4797 19.6632 21 19.0714 21C18.4797 21 18 21.4797 18 22.0714C18 22.6632 18.4797 23.1429 19.0714 23.1429Z" stroke="white"/>
<path fill-rule="evenodd" clip-rule="evenodd" d="M19.0714 26.8616C19.6632 26.8616 20.1429 26.3819 20.1429 25.7902C20.1429 25.1984 19.6632 24.7188 19.0714 24.7188C18.4797 24.7188 18 25.1984 18 25.7902C18 26.3819 18.4797 26.8616 19.0714 26.8616Z" stroke="white"/>
<path fill-rule="evenodd" clip-rule="evenodd" d="M14.7853 27.8557C15.377 27.8557 15.8567 27.3761 15.8567 26.7843C15.8567 26.1926 15.377 25.7129 14.7853 25.7129C14.1936 25.7129 13.7139 26.1926 13.7139 26.7843C13.7139 27.3761 14.1936 27.8557 14.7853 27.8557Z" stroke="white"/>
<path fill-rule="evenodd" clip-rule="evenodd" d="M24.5961 22.6845C24.6886 23.2689 25.2375 23.6677 25.8219 23.5751C26.4063 23.4825 26.8051 22.9337 26.7125 22.3493C26.62 21.7648 26.0711 21.3661 25.4867 21.4586C24.9022 21.5512 24.5035 22.1 24.5961 22.6845Z" fill="white" stroke="white"/>
<path fill-rule="evenodd" clip-rule="evenodd" d="M27.5961 24.1063C27.6886 24.6908 28.2375 25.0895 28.8219 24.997C29.4063 24.9044 29.8051 24.3556 29.7125 23.7711C29.62 23.1867 29.0711 22.7879 28.4867 22.8805C27.9022 22.9731 27.5035 23.5219 27.5961 24.1063Z" stroke="white"/>
<path fill-rule="evenodd" clip-rule="evenodd" d="M14.3099 13.2216C14.4025 13.806 14.9513 14.2048 15.5358 14.1122C16.1202 14.0196 16.519 13.4708 16.4264 12.8864C16.3338 12.3019 15.785 11.9032 15.2006 11.9957C14.6161 12.0883 14.2174 12.6371 14.3099 13.2216Z" stroke="white"/>
<path fill-rule="evenodd" clip-rule="evenodd" d="M22.0248 11.6786C22.1173 12.2631 22.6662 12.6618 23.2506 12.5692C23.8351 12.4767 24.2338 11.9278 24.1412 11.3434C24.0487 10.7589 23.4998 10.3602 22.9154 10.4528C22.3309 10.5453 21.9322 11.0942 22.0248 11.6786Z" stroke="white"/>
<path fill-rule="evenodd" clip-rule="evenodd" d="M22.0714 25.2854C22.6632 25.2854 23.1429 24.8057 23.1429 24.214C23.1429 23.6223 22.6632 23.1426 22.0714 23.1426C21.4797 23.1426 21 23.6223 21 24.214C21 24.8057 21.4797 25.2854 22.0714 25.2854Z" stroke="white"/>
<path fill-rule="evenodd" clip-rule="evenodd" d="M16.0714 24.5647C16.6632 24.5647 17.1429 24.085 17.1429 23.4933C17.1429 22.9016 16.6632 22.4219 16.0714 22.4219C15.4797 22.4219 15 22.9016 15 23.4933C15 24.085 15.4797 24.5647 16.0714 24.5647Z" fill="white" stroke="white"/>
<path fill-rule="evenodd" clip-rule="evenodd" d="M25.3334 18.9638C25.4259 19.5482 25.9748 19.947 26.5592 19.8544C27.1437 19.7618 27.5424 19.213 27.4498 18.6285C27.3573 18.0441 26.8084 17.6454 26.224 17.7379C25.6395 17.8305 25.2408 18.3793 25.3334 18.9638Z" stroke="white"/>
<path fill-rule="evenodd" clip-rule="evenodd" d="M23.7386 26.2509C23.8312 26.8353 24.38 27.2341 24.9645 27.1415C25.5489 27.0489 25.9477 26.5001 25.8551 25.9157C25.7625 25.3312 25.2137 24.9325 24.6293 25.025C24.0448 25.1176 23.6461 25.6664 23.7386 26.2509Z" stroke="white"/>
<path fill-rule="evenodd" clip-rule="evenodd" d="M26.9281 27.1063C27.0207 27.6908 27.5695 28.0895 28.1539 27.997C28.7384 27.9044 29.1371 27.3556 29.0446 26.7711C28.952 26.1867 28.4032 25.7879 27.8187 25.8805C27.2343 25.9731 26.8355 26.5219 26.9281 27.1063Z" stroke="white"/>
<path fill-rule="evenodd" clip-rule="evenodd" d="M11.3099 24.536C11.4025 25.1205 11.9513 25.5192 12.5358 25.4267C13.1202 25.3341 13.519 24.7853 13.4264 24.2008C13.3338 23.6164 12.785 23.2176 12.2006 23.3102C11.6161 23.4028 11.2174 23.9516 11.3099 24.536Z" stroke="white"/>
<path fill-rule="evenodd" clip-rule="evenodd" d="M20.7386 28.3935C20.8312 28.9779 21.38 29.3766 21.9645 29.2841C22.5489 29.1915 22.9477 28.6427 22.8551 28.0582C22.7625 27.4738 22.2137 27.075 21.6293 27.1676C21.0448 27.2602 20.6461 27.809 20.7386 28.3935Z" fill="white" stroke="white"/>
<path fill-rule="evenodd" clip-rule="evenodd" d="M16.8812 29.2509C16.9738 29.8353 17.5226 30.2341 18.1071 30.1415C18.6915 30.0489 19.0903 29.5001 18.9977 28.9157C18.9051 28.3312 18.3563 27.9325 17.7718 28.025C17.1874 28.1176 16.7886 28.6664 16.8812 29.2509Z" stroke="white"/>
<path fill-rule="evenodd" clip-rule="evenodd" d="M24.0472 29.2509C24.1398 29.8353 24.6886 30.2341 25.2731 30.1415C25.8575 30.0489 26.2563 29.5001 26.1637 28.9157C26.0711 28.3312 25.5223 27.9325 24.9379 28.025C24.3534 28.1176 23.9547 28.6664 24.0472 29.2509Z" stroke="white"/>
<path fill-rule="evenodd" clip-rule="evenodd" d="M27.5961 16.3935C27.6886 16.9779 28.2375 17.3767 28.8219 17.2841C29.4063 17.1915 29.8051 16.6427 29.7125 16.0582C29.62 15.4738 29.0711 15.075 28.4867 15.1676C27.9022 15.2602 27.5035 15.809 27.5961 16.3935Z" stroke="white"/>
<path fill-rule="evenodd" clip-rule="evenodd" d="M18.1673 12.3642C18.2599 12.9486 18.8087 13.3474 19.3932 13.2548C19.9776 13.1622 20.3764 12.6134 20.2838 12.0289C20.1913 11.4445 19.6424 11.0457 19.058 11.1383C18.4735 11.2309 18.0748 11.7797 18.1673 12.3642Z" stroke="white"/>
<path fill-rule="evenodd" clip-rule="evenodd" d="M28.3334 20.6786C28.4259 21.2631 28.9748 21.6618 29.5592 21.5692C30.1437 21.4767 30.5424 20.9278 30.4498 20.3434C30.3573 19.7589 29.8084 19.3602 29.224 19.4528C28.6395 19.5453 28.2408 20.0942 28.3334 20.6786Z" stroke="white"/>
<path fill-rule="evenodd" clip-rule="evenodd" d="M22.4535 17.5419C22.546 18.1263 23.0949 18.5251 23.6793 18.4325C24.2638 18.34 24.6625 17.7911 24.57 17.2067C24.4774 16.6222 23.9286 16.2235 23.3441 16.316C22.7597 16.4086 22.3609 16.9574 22.4535 17.5419Z" stroke="white"/>
<path fill-rule="evenodd" clip-rule="evenodd" d="M20.3099 15.245C20.4025 15.8295 20.9513 16.2282 21.5358 16.1356C22.1202 16.0431 22.519 15.4942 22.4264 14.9098C22.3338 14.3254 21.785 13.9266 21.2006 14.0192C20.6161 14.1117 20.2174 14.6606 20.3099 15.245Z" fill="white" stroke="white"/>
<path fill-rule="evenodd" clip-rule="evenodd" d="M21.5961 20.6786C21.6886 21.2631 22.2375 21.6618 22.8219 21.5692C23.4063 21.4767 23.8051 20.9278 23.7125 20.3434C23.62 19.7589 23.0711 19.3602 22.4867 19.4528C21.9022 19.5453 21.5035 20.0942 21.5961 20.6786Z" fill="white" stroke="white"/>
<path fill-rule="evenodd" clip-rule="evenodd" d="M24.5961 14.2509C24.6886 14.8353 25.2375 15.2341 25.8219 15.1415C26.4063 15.0489 26.8051 14.5001 26.7125 13.9157C26.62 13.3312 26.0711 12.9325 25.4867 13.025C24.9022 13.1176 24.5035 13.6664 24.5961 14.2509Z" fill="white" stroke="white"/>
</g>
</svg>
