<?xml version="1.0" encoding="utf-8"?>
<!-- Generator: Adobe Illustrator 22.0.1, SVG Export Plug-In . SVG Version: 6.00 Build 0)  -->
<svg width="42" height="42" viewBox="0 0 42 42" fill="none" xmlns="http://www.w3.org/2000/svg">
<path fill-rule="evenodd" clip-rule="evenodd" d="M21 42C32.598 42 42 32.598 42 21C42 9.40202 32.598 0 21 0C9.40202 0 0 9.40202 0 21C0 32.598 9.40202 42 21 42Z" fill="white"/>
<mask id="mask0" mask-type="alpha" maskUnits="userSpaceOnUse" x="0" y="0" width="42" height="42">
<path fill-rule="evenodd" clip-rule="evenodd" d="M21 42C32.598 42 42 32.598 42 21C42 9.40202 32.598 0 21 0C9.40202 0 0 9.40202 0 21C0 32.598 9.40202 42 21 42Z" fill="white"/>
</mask>
<g mask="url(#mask0)">
<rect x="12.8569" y="19.2852" width="39.4286" height="32.1429" fill="#FF8E6F"/>
<rect x="36.938" y="23.5898" width="31.2857" height="51.4286" transform="rotate(108 36.938 23.5898)" fill="#FF8E6F"/>
<path fill-rule="evenodd" clip-rule="evenodd" d="M21.0001 37.714C28.7038 37.714 35.1582 32.3651 36.8519 25.1785C37.1356 23.9745 37.2858 22.7189 37.2858 21.4283C37.2858 12.4339 29.9944 5.14258 21.0001 5.14258C12.0057 5.14258 4.71436 12.4339 4.71436 21.4283C4.71436 30.4226 12.0057 37.714 21.0001 37.714Z" fill="black" stroke="black"/>
<path fill-rule="evenodd" clip-rule="evenodd" d="M20.9999 35.1434C28.5741 35.1434 34.7142 29.0033 34.7142 21.4291C34.7142 13.8549 28.5741 7.71484 20.9999 7.71484C13.4257 7.71484 7.28564 13.8549 7.28564 21.4291C7.28564 29.0033 13.4257 35.1434 20.9999 35.1434Z" fill="#FF8E6F"/>
</g>
<path fill-rule="evenodd" clip-rule="evenodd" d="M17.3576 17.7073C17.9493 17.7073 18.429 17.2276 18.429 16.6359C18.429 16.0441 17.9493 15.5645 17.3576 15.5645C16.7658 15.5645 16.2861 16.0441 16.2861 16.6359C16.2861 17.2276 16.7658 17.7073 17.3576 17.7073Z" stroke="white"/>
<path fill-rule="evenodd" clip-rule="evenodd" d="M16.5001 21.5647C17.0919 21.5647 17.5716 21.085 17.5716 20.4933C17.5716 19.9016 17.0919 19.4219 16.5001 19.4219C15.9084 19.4219 15.4287 19.9016 15.4287 20.4933C15.4287 21.085 15.9084 21.5647 16.5001 21.5647Z" stroke="white"/>
<path fill-rule="evenodd" clip-rule="evenodd" d="M12.6432 22.8518C13.2349 22.8518 13.7146 22.3721 13.7146 21.7804C13.7146 21.1887 13.2349 20.709 12.6432 20.709C12.0515 20.709 11.5718 21.1887 11.5718 21.7804C11.5718 22.3721 12.0515 22.8518 12.6432 22.8518Z" stroke="white"/>
<path fill-rule="evenodd" clip-rule="evenodd" d="M19.9289 20.2796C20.5206 20.2796 21.0003 19.7999 21.0003 19.2081C21.0003 18.6164 20.5206 18.1367 19.9289 18.1367C19.3371 18.1367 18.8574 18.6164 18.8574 19.2081C18.8574 19.7999 19.3371 20.2796 19.9289 20.2796Z" stroke="white"/>
<path fill-rule="evenodd" clip-rule="evenodd" d="M13.5001 18.8577C14.0919 18.8577 14.5716 18.378 14.5716 17.7863C14.5716 17.1945 14.0919 16.7148 13.5001 16.7148C12.9084 16.7148 12.4287 17.1945 12.4287 17.7863C12.4287 18.378 12.9084 18.8577 13.5001 18.8577Z" fill="white" stroke="white"/>
<path fill-rule="evenodd" clip-rule="evenodd" d="M19.0714 24.0003C19.6632 24.0003 20.1429 23.5206 20.1429 22.9289C20.1429 22.3371 19.6632 21.8574 19.0714 21.8574C18.4797 21.8574 18 22.3371 18 22.9289C18 23.5206 18.4797 24.0003 19.0714 24.0003Z" stroke="white"/>
<path fill-rule="evenodd" clip-rule="evenodd" d="M19.0714 27.719C19.6632 27.719 20.1429 27.2393 20.1429 26.6476C20.1429 26.0559 19.6632 25.5762 19.0714 25.5762C18.4797 25.5762 18 26.0559 18 26.6476C18 27.2393 18.4797 27.719 19.0714 27.719Z" stroke="white"/>
<path fill-rule="evenodd" clip-rule="evenodd" d="M14.7858 28.7132C15.3775 28.7132 15.8572 28.2335 15.8572 27.6417C15.8572 27.05 15.3775 26.5703 14.7858 26.5703C14.1941 26.5703 13.7144 27.05 13.7144 27.6417C13.7144 28.2335 14.1941 28.7132 14.7858 28.7132Z" stroke="white"/>
<path fill-rule="evenodd" clip-rule="evenodd" d="M24.5965 23.5419C24.6891 24.1263 25.2379 24.5251 25.8224 24.4325C26.4068 24.34 26.8056 23.7911 26.713 23.2067C26.6205 22.6222 26.0716 22.2235 25.4872 22.316C24.9027 22.4086 24.504 22.9574 24.5965 23.5419Z" fill="white" stroke="white"/>
<path fill-rule="evenodd" clip-rule="evenodd" d="M27.5965 24.9638C27.6891 25.5482 28.2379 25.947 28.8224 25.8544C29.4068 25.7618 29.8056 25.213 29.713 24.6286C29.6205 24.0441 29.0716 23.6454 28.4872 23.7379C27.9027 23.8305 27.504 24.3793 27.5965 24.9638Z" stroke="white"/>
<path fill-rule="evenodd" clip-rule="evenodd" d="M14.3109 14.079C14.4035 14.6634 14.9523 15.0622 15.5367 14.9696C16.1212 14.8771 16.5199 14.3282 16.4274 13.7438C16.3348 13.1593 15.786 12.7606 15.2015 12.8532C14.6171 12.9457 14.2183 13.4946 14.3109 14.079Z" stroke="white"/>
<path fill-rule="evenodd" clip-rule="evenodd" d="M22.0248 12.536C22.1173 13.1205 22.6662 13.5192 23.2506 13.4267C23.8351 13.3341 24.2338 12.7853 24.1412 12.2008C24.0487 11.6164 23.4998 11.2176 22.9154 11.3102C22.3309 11.4028 21.9322 11.9516 22.0248 12.536Z" stroke="white"/>
<path fill-rule="evenodd" clip-rule="evenodd" d="M22.0714 26.1429C22.6632 26.1429 23.1429 25.6632 23.1429 25.0714C23.1429 24.4797 22.6632 24 22.0714 24C21.4797 24 21 24.4797 21 25.0714C21 25.6632 21.4797 26.1429 22.0714 26.1429Z" stroke="white"/>
<path fill-rule="evenodd" clip-rule="evenodd" d="M16.0714 25.4222C16.6632 25.4222 17.1429 24.9425 17.1429 24.3507C17.1429 23.759 16.6632 23.2793 16.0714 23.2793C15.4797 23.2793 15 23.759 15 24.3507C15 24.9425 15.4797 25.4222 16.0714 25.4222Z" fill="white" stroke="white"/>
<path fill-rule="evenodd" clip-rule="evenodd" d="M25.3338 19.8212C25.4264 20.4056 25.9752 20.8044 26.5597 20.7118C27.1441 20.6192 27.5429 20.0704 27.4503 19.486C27.3578 18.9015 26.8089 18.5028 26.2245 18.5953C25.64 18.6879 25.2413 19.2367 25.3338 19.8212Z" stroke="white"/>
<path fill-rule="evenodd" clip-rule="evenodd" d="M23.7391 27.1083C23.8317 27.6927 24.3805 28.0915 24.965 27.9989C25.5494 27.9064 25.9482 27.3575 25.8556 26.7731C25.763 26.1886 25.2142 25.7899 24.6298 25.8825C24.0453 25.975 23.6466 26.5239 23.7391 27.1083Z" stroke="white"/>
<path fill-rule="evenodd" clip-rule="evenodd" d="M26.9286 27.9638C27.0211 28.5482 27.57 28.947 28.1544 28.8544C28.7389 28.7618 29.1376 28.213 29.045 27.6285C28.9525 27.0441 28.4037 26.6454 27.8192 26.7379C27.2348 26.8305 26.836 27.3793 26.9286 27.9638Z" stroke="white"/>
<path fill-rule="evenodd" clip-rule="evenodd" d="M11.3109 25.3935C11.4035 25.9779 11.9523 26.3767 12.5367 26.2841C13.1212 26.1915 13.5199 25.6427 13.4274 25.0582C13.3348 24.4738 12.786 24.075 12.2015 24.1676C11.6171 24.2602 11.2183 24.809 11.3109 25.3935Z" stroke="white"/>
<path fill-rule="evenodd" clip-rule="evenodd" d="M20.7391 29.2509C20.8317 29.8353 21.3805 30.2341 21.965 30.1415C22.5494 30.0489 22.9482 29.5001 22.8556 28.9157C22.763 28.3312 22.2142 27.9325 21.6298 28.025C21.0453 28.1176 20.6466 28.6664 20.7391 29.2509Z" fill="white" stroke="white"/>
<path fill-rule="evenodd" clip-rule="evenodd" d="M16.8822 30.1083C16.9748 30.6927 17.5236 31.0915 18.108 30.9989C18.6925 30.9064 19.0912 30.3575 18.9987 29.7731C18.9061 29.1886 18.3573 28.7899 17.7728 28.8825C17.1884 28.975 16.7896 29.5238 16.8822 30.1083Z" stroke="white"/>
<path fill-rule="evenodd" clip-rule="evenodd" d="M24.0482 30.1083C24.1408 30.6927 24.6896 31.0915 25.274 30.9989C25.8585 30.9064 26.2572 30.3575 26.1647 29.7731C26.0721 29.1886 25.5233 28.7899 24.9388 28.8825C24.3544 28.975 23.9556 29.5238 24.0482 30.1083Z" stroke="white"/>
<path fill-rule="evenodd" clip-rule="evenodd" d="M27.5965 17.2509C27.6891 17.8353 28.2379 18.2341 28.8224 18.1415C29.4068 18.0489 29.8056 17.5001 29.713 16.9157C29.6205 16.3312 29.0716 15.9325 28.4872 16.025C27.9027 16.1176 27.504 16.6664 27.5965 17.2509Z" stroke="white"/>
<path fill-rule="evenodd" clip-rule="evenodd" d="M18.1678 13.2216C18.2604 13.806 18.8092 14.2048 19.3937 14.1122C19.9781 14.0196 20.3769 13.4708 20.2843 12.8864C20.1917 12.3019 19.6429 11.9032 19.0585 11.9957C18.474 12.0883 18.0753 12.6371 18.1678 13.2216Z" stroke="white"/>
<path fill-rule="evenodd" clip-rule="evenodd" d="M28.3338 21.536C28.4264 22.1205 28.9752 22.5192 29.5597 22.4267C30.1441 22.3341 30.5429 21.7853 30.4503 21.2008C30.3578 20.6164 29.8089 20.2176 29.2245 20.3102C28.64 20.4028 28.2413 20.9516 28.3338 21.536Z" stroke="white"/>
<path fill-rule="evenodd" clip-rule="evenodd" d="M22.4535 18.3993C22.546 18.9838 23.0949 19.3825 23.6793 19.2899C24.2638 19.1974 24.6625 18.6485 24.57 18.0641C24.4774 17.4796 23.9286 17.0809 23.3441 17.1735C22.7597 17.266 22.3609 17.8149 22.4535 18.3993Z" stroke="white"/>
<path fill-rule="evenodd" clip-rule="evenodd" d="M20.3109 16.1024C20.4035 16.6869 20.9523 17.0856 21.5367 16.9931C22.1212 16.9005 22.5199 16.3517 22.4274 15.7672C22.3348 15.1828 21.786 14.784 21.2015 14.8766C20.6171 14.9692 20.2183 15.518 20.3109 16.1024Z" fill="white" stroke="white"/>
<path fill-rule="evenodd" clip-rule="evenodd" d="M21.5965 21.536C21.6891 22.1205 22.2379 22.5192 22.8224 22.4267C23.4068 22.3341 23.8056 21.7853 23.713 21.2008C23.6205 20.6164 23.0716 20.2176 22.4872 20.3102C21.9027 20.4028 21.504 20.9516 21.5965 21.536Z" fill="white" stroke="white"/>
<path fill-rule="evenodd" clip-rule="evenodd" d="M24.5965 15.1083C24.6891 15.6927 25.2379 16.0915 25.8224 15.9989C26.4068 15.9064 26.8056 15.3575 26.713 14.7731C26.6205 14.1886 26.0716 13.7899 25.4872 13.8825C24.9027 13.975 24.504 14.5238 24.5965 15.1083Z" fill="white" stroke="white"/>
</svg>
