<?xml version="1.0" encoding="utf-8"?>
<!-- Generator: Adobe Illustrator 22.0.1, SVG Export Plug-In . SVG Version: 6.00 Build 0)  -->
<svg width="21" height="19" viewBox="0 0 21 19" fill="none" xmlns="http://www.w3.org/2000/svg">
<path fill-rule="evenodd" clip-rule="evenodd" d="M19.5797 0H1.38647C0.608696 0 0 0.658537 0 1.5C0 2.34146 0.608696 3 1.38647 3H19.6135C20.3913 3 21 2.34146 21 1.5C20.9662 0.658537 20.3575 0 19.5797 0ZM19.5797 16H1.38647C0.608696 16 0 16.6585 0 17.5C0 18.3415 0.608696 19 1.38647 19H19.6135C20.3913 19 21 18.3415 21 17.5C20.9662 16.6585 20.3575 16 19.5797 16ZM19.5797 8H1.38647C0.608696 8 0 8.65854 0 9.5C0 10.3415 0.608696 11 1.38647 11H19.6135C20.3913 11 21 10.3415 21 9.5C20.9662 8.65854 20.3575 8 19.5797 8Z" fill="white"/>
</svg>
