<?xml version="1.0" encoding="utf-8"?>
<!-- Generator: Adobe Illustrator 22.0.1, SVG Export Plug-In . SVG Version: 6.00 Build 0)  -->
<svg width="42" height="42" viewBox="0 0 42 42" fill="none" xmlns="http://www.w3.org/2000/svg">
<path fill-rule="evenodd" clip-rule="evenodd" d="M21 42C32.598 42 42 32.598 42 21C42 9.40202 32.598 0 21 0C9.40202 0 0 9.40202 0 21C0 32.598 9.40202 42 21 42Z" fill="#CDCDCD"/>
<mask id="mask0" mask-type="alpha" maskUnits="userSpaceOnUse" x="0" y="0" width="42" height="42">
<path fill-rule="evenodd" clip-rule="evenodd" d="M21 42C32.598 42 42 32.598 42 21C42 9.40202 32.598 0 21 0C9.40202 0 0 9.40202 0 21C0 32.598 9.40202 42 21 42Z" fill="white"/>
</mask>
<g mask="url(#mask0)">
<path fill-rule="evenodd" clip-rule="evenodd" d="M21.0001 37.714C28.7038 37.714 35.1582 32.3651 36.8519 25.1785C37.1356 23.9745 37.2858 22.7189 37.2858 21.4283C37.2858 12.4339 29.9944 5.14258 21.0001 5.14258C12.0057 5.14258 4.71436 12.4339 4.71436 21.4283C4.71436 30.4226 12.0057 37.714 21.0001 37.714Z" fill="black" stroke="black"/>
<path fill-rule="evenodd" clip-rule="evenodd" d="M20.9999 35.1434C28.5741 35.1434 34.7142 29.0033 34.7142 21.4291C34.7142 13.8549 28.5741 7.71484 20.9999 7.71484C13.4257 7.71484 7.28564 13.8549 7.28564 21.4291C7.28564 29.0033 13.4257 35.1434 20.9999 35.1434Z" fill="#989898"/>
</g>
<path fill-rule="evenodd" clip-rule="evenodd" d="M21.4418 12L20.1687 19.1053L18.4135 16.1213V19.1053L13.7144 17.4886L18.4135 21.6333L13.7144 25.4755L18.4135 23.696V26.6716L20.1687 23.696L21.4418 30.2767L22.486 23.696L24.3912 26.6716L24.1969 23.4023L28.7144 25.4755L24.9614 21.6333L28.7144 17.4886L23.9577 19.1053L24.3912 16.1213L22.486 19.1053L21.4418 12Z" fill="#989898" stroke="white"/>
</svg>
