<?xml version="1.0" encoding="utf-8"?>
<!-- Generator: Adobe Illustrator 22.0.1, SVG Export Plug-In . SVG Version: 6.00 Build 0)  -->
<svg width="34" height="34" viewBox="0 0 34 34" fill="none" xmlns="http://www.w3.org/2000/svg">
<path fill-rule="evenodd" clip-rule="evenodd" d="M17 33C25.8366 33 33 25.8366 33 17C33 8.16344 25.8366 1 17 1C8.16344 1 1 8.16344 1 17C1 25.8366 8.16344 33 17 33Z" fill="black" stroke="white"/>
<path fill-rule="evenodd" clip-rule="evenodd" d="M17.0001 27.8791C23.009 27.8791 27.8801 23.008 27.8801 16.9991C27.8801 10.9903 23.009 6.11914 17.0001 6.11914C10.9913 6.11914 6.12012 10.9903 6.12012 16.9991C6.12012 23.008 10.9913 27.8791 17.0001 27.8791Z" fill="black" stroke="white"/>
<path fill-rule="evenodd" clip-rule="evenodd" d="M16.9998 6.75977L27.2398 16.9998L16.9998 27.2398L6.75977 16.9998L16.9998 6.75977Z" fill="black" stroke="white"/>
</svg>
