<svg width="42" height="42" viewBox="0 0 42 42" fill="none" xmlns="http://www.w3.org/2000/svg">
<path fill-rule="evenodd" clip-rule="evenodd" d="M21 42C32.598 42 42 32.598 42 21C42 9.40202 32.598 0 21 0C9.40202 0 0 9.40202 0 21C0 32.598 9.40202 42 21 42Z" fill="#CDCDCD"/>
<mask id="mask0" mask-type="alpha" maskUnits="userSpaceOnUse" x="0" y="0" width="42" height="42">
<path fill-rule="evenodd" clip-rule="evenodd" d="M21 42C32.598 42 42 32.598 42 21C42 9.40202 32.598 0 21 0C9.40202 0 0 9.40202 0 21C0 32.598 9.40202 42 21 42Z" fill="white"/>
</mask>
<g mask="url(#mask0)">
<path fill-rule="evenodd" clip-rule="evenodd" d="M21.0001 37.714C28.7038 37.714 35.1582 32.3651 36.8519 25.1785C37.1356 23.9745 37.2858 22.7189 37.2858 21.4283C37.2858 12.4339 29.9944 5.14258 21.0001 5.14258C12.0057 5.14258 4.71436 12.4339 4.71436 21.4283C4.71436 30.4226 12.0057 37.714 21.0001 37.714Z" fill="black" stroke="black"/>
<path fill-rule="evenodd" clip-rule="evenodd" d="M20.9999 35.1434C28.5741 35.1434 34.7142 29.0033 34.7142 21.4291C34.7142 13.8549 28.5741 7.71484 20.9999 7.71484C13.4257 7.71484 7.28564 13.8549 7.28564 21.4291C7.28564 29.0033 13.4257 35.1434 20.9999 35.1434Z" fill="#989898"/>
<path fill-rule="evenodd" clip-rule="evenodd" d="M25.1921 18.6443C25.3772 19.8132 26.4749 20.6107 27.6438 20.4256C28.8127 20.2405 29.6102 19.1428 29.4251 17.9739C29.2399 16.805 28.1423 16.0075 26.9734 16.1926C25.8045 16.3778 25.007 17.4754 25.1921 18.6443Z" stroke="white"/>
<path fill-rule="evenodd" clip-rule="evenodd" d="M25.1921 28.5018C25.3772 29.6707 26.4749 30.4681 27.6438 30.283C28.8127 30.0979 29.6102 29.0002 29.4251 27.8313C29.2399 26.6624 28.1423 25.8649 26.9734 26.0501C25.8045 26.2352 25.007 27.3329 25.1921 28.5018Z" stroke="white"/>
<path fill-rule="evenodd" clip-rule="evenodd" d="M13.1921 24.6443C13.3772 25.8132 14.4749 26.6107 15.6438 26.4256C16.8127 26.2405 17.6102 25.1428 17.4251 23.9739C17.2399 22.805 16.1423 22.0075 14.9734 22.1926C13.8045 22.3778 13.007 23.4754 13.1921 24.6443Z" stroke="white"/>
<path fill-rule="evenodd" clip-rule="evenodd" d="M13.1921 14.3592C13.3772 15.5281 14.4749 16.3256 15.6438 16.1404C16.8127 15.9553 17.6102 14.8576 17.4251 13.6887C17.2399 12.5198 16.1423 11.7223 14.9734 11.9075C13.8045 12.0926 13.007 13.1903 13.1921 14.3592Z" stroke="white"/>
<path d="M19.5687 14.739L23.9343 16.8682" stroke="white" stroke-linecap="square"/>
<path d="M23.9294 16.7602L23.3374 15.041" stroke="white" stroke-linecap="square" stroke-linejoin="round"/>
<path d="M23.8576 17.0375L22.1027 17.326" stroke="white" stroke-linecap="square" stroke-linejoin="round"/>
<path d="M19.14 25.8816L23.5056 28.0108" stroke="white" stroke-linecap="square"/>
<path d="M23.5007 27.9028L22.9087 26.1836" stroke="white" stroke-linecap="square" stroke-linejoin="round"/>
<path d="M23.4289 28.1801L21.674 28.4685" stroke="white" stroke-linecap="square" stroke-linejoin="round"/>
<path d="M24.0392 20.3093L19.6736 22.4385" stroke="white" stroke-linecap="square"/>
<path d="M19.6785 22.3305L20.2705 20.6113" stroke="white" stroke-linecap="square" stroke-linejoin="round"/>
<path d="M19.7503 22.6078L21.5052 22.8963" stroke="white" stroke-linecap="square" stroke-linejoin="round"/>
</g>
</svg>
