<?xml version="1.0" encoding="utf-8"?>
<!-- Generator: Adobe Illustrator 22.0.1, SVG Export Plug-In . SVG Version: 6.00 Build 0)  -->
<svg width="42" height="42" viewBox="0 0 42 42" fill="none" xmlns="http://www.w3.org/2000/svg">
<path fill-rule="evenodd" clip-rule="evenodd" d="M21 42C32.598 42 42 32.598 42 21C42 9.40202 32.598 0 21 0C9.40202 0 0 9.40202 0 21C0 32.598 9.40202 42 21 42Z" fill="#CDCDCD"/>
<mask id="mask0" mask-type="alpha" maskUnits="userSpaceOnUse" x="0" y="0" width="42" height="42">
<path fill-rule="evenodd" clip-rule="evenodd" d="M21 42C32.598 42 42 32.598 42 21C42 9.40202 32.598 0 21 0C9.40202 0 0 9.40202 0 21C0 32.598 9.40202 42 21 42Z" fill="white"/>
</mask>
<g mask="url(#mask0)">
<path fill-rule="evenodd" clip-rule="evenodd" d="M20.9996 37.714C28.7033 37.714 35.1577 32.3651 36.8514 25.1785C37.1352 23.9745 37.2853 22.7189 37.2853 21.4283C37.2853 12.4339 29.9939 5.14258 20.9996 5.14258C12.0052 5.14258 4.71387 12.4339 4.71387 21.4283C4.71387 30.4226 12.0052 37.714 20.9996 37.714Z" fill="black"/>
<path fill-rule="evenodd" clip-rule="evenodd" d="M21.0004 35.1434C28.5746 35.1434 34.7147 29.0033 34.7147 21.4291C34.7147 13.8549 28.5746 7.71484 21.0004 7.71484C13.4262 7.71484 7.28613 13.8549 7.28613 21.4291C7.28613 29.0033 13.4262 35.1434 21.0004 35.1434Z" fill="#989898"/>
<path d="M19.5687 14.739L23.9343 16.8682" stroke="white" stroke-linecap="square"/>
<path d="M23.9289 16.7602L23.3369 15.041" stroke="white" stroke-linecap="square" stroke-linejoin="round"/>
<path d="M23.8581 17.0375L22.1032 17.326" stroke="white" stroke-linecap="square" stroke-linejoin="round"/>
<path d="M19.141 25.8816L23.5066 28.0108" stroke="white" stroke-linecap="square"/>
<path d="M23.5012 27.9028L22.9092 26.1836" stroke="white" stroke-linecap="square" stroke-linejoin="round"/>
<path d="M23.4304 28.1801L21.6754 28.4685" stroke="white" stroke-linecap="square" stroke-linejoin="round"/>
<path d="M24.0397 20.3093L19.6741 22.4385" stroke="white" stroke-linecap="square"/>
<path d="M19.6795 22.3305L20.2715 20.6113" stroke="white" stroke-linecap="square" stroke-linejoin="round"/>
<path d="M19.7503 22.6078L21.5052 22.8963" stroke="white" stroke-linecap="square" stroke-linejoin="round"/>
</g>
</svg>
