<svg width="42" height="42" viewBox="0 0 42 42" fill="none" xmlns="http://www.w3.org/2000/svg">
<path fill-rule="evenodd" clip-rule="evenodd" d="M21 42C32.598 42 42 32.598 42 21C42 9.40202 32.598 0 21 0C9.40202 0 0 9.40202 0 21C0 32.598 9.40202 42 21 42Z" fill="#CDCDCD"/>
<mask id="mask0" mask-type="alpha" maskUnits="userSpaceOnUse" x="0" y="0" width="42" height="42">
<path fill-rule="evenodd" clip-rule="evenodd" d="M21 42C32.598 42 42 32.598 42 21C42 9.40202 32.598 0 21 0C9.40202 0 0 9.40202 0 21C0 32.598 9.40202 42 21 42Z" fill="white"/>
</mask>
<g mask="url(#mask0)">
<path fill-rule="evenodd" clip-rule="evenodd" d="M21.0001 37.716C28.7038 37.716 35.1582 32.367 36.8519 25.1805C37.1356 23.9765 37.2858 22.7209 37.2858 21.4302C37.2858 12.4359 29.9944 5.14453 21.0001 5.14453C12.0057 5.14453 4.71436 12.4359 4.71436 21.4302C4.71436 30.4246 12.0057 37.716 21.0001 37.716Z" fill="black" stroke="black"/>
<path fill-rule="evenodd" clip-rule="evenodd" d="M20.9999 35.1434C28.5741 35.1434 34.7142 29.0033 34.7142 21.4291C34.7142 13.8549 28.5741 7.71484 20.9999 7.71484C13.4257 7.71484 7.28564 13.8549 7.28564 21.4291C7.28564 29.0033 13.4257 35.1434 20.9999 35.1434Z" fill="#989898"/>
<path d="M11.7859 17.7852L21.0646 20.9484L30.643 24.2137" stroke="white" stroke-linecap="square"/>
<path fill-rule="evenodd" clip-rule="evenodd" d="M20.5526 21.0742L18.5166 25.6479H22.8042L20.5526 21.0742Z" stroke="white"/>
</g>
</svg>
