<?xml version="1.0" encoding="utf-8"?>
<!-- Generator: Adobe Illustrator 22.0.1, SVG Export Plug-In . SVG Version: 6.00 Build 0)  -->
<svg width="34" height="33" viewBox="0 0 34 33" fill="none" xmlns="http://www.w3.org/2000/svg">
<path fill-rule="evenodd" clip-rule="evenodd" d="M16.9996 32.714C24.7033 32.714 31.1577 27.3651 32.8514 20.1785C33.1352 18.9745 33.2853 17.7189 33.2853 16.4283C33.2853 7.43394 25.9939 0.142578 16.9996 0.142578C8.00523 0.142578 0.713867 7.43394 0.713867 16.4283C0.713867 25.4226 8.00523 32.714 16.9996 32.714Z" fill="black"/>
<path fill-rule="evenodd" clip-rule="evenodd" d="M16.9994 30.1434C24.5736 30.1434 30.7137 24.0033 30.7137 16.4291C30.7137 8.85494 24.5736 2.71484 16.9994 2.71484C9.42525 2.71484 3.28516 8.85494 3.28516 16.4291C3.28516 24.0033 9.42525 30.1434 16.9994 30.1434Z" fill="#989898"/>
<path d="M7.78516 12.7852L17.0639 15.9484L26.6423 19.2137" stroke="white" stroke-linecap="square"/>
<path fill-rule="evenodd" clip-rule="evenodd" d="M16.5516 16.0762L14.5156 20.6498H18.8032L16.5516 16.0762Z" stroke="white"/>
</svg>
