<?xml version="1.0" encoding="utf-8"?>
<!-- Generator: Adobe Illustrator 22.0.1, SVG Export Plug-In . SVG Version: 6.00 Build 0)  -->
<svg width="34" height="33" viewBox="0 0 34 33" fill="none" xmlns="http://www.w3.org/2000/svg">
<path fill-rule="evenodd" clip-rule="evenodd" d="M16.9996 32.714C24.7033 32.714 31.1577 27.3651 32.8514 20.1785C33.1352 18.9745 33.2853 17.7189 33.2853 16.4283C33.2853 7.43394 25.9939 0.142578 16.9996 0.142578C8.00523 0.142578 0.713867 7.43394 0.713867 16.4283C0.713867 25.4226 8.00523 32.714 16.9996 32.714Z" fill="black"/>
<path fill-rule="evenodd" clip-rule="evenodd" d="M16.9994 30.1434C24.5736 30.1434 30.7137 24.0033 30.7137 16.4291C30.7137 8.85494 24.5736 2.71484 16.9994 2.71484C9.42525 2.71484 3.28516 8.85494 3.28516 16.4291C3.28516 24.0033 9.42525 30.1434 16.9994 30.1434Z" fill="#989898"/>
<path fill-rule="evenodd" clip-rule="evenodd" d="M10.5713 9.14258V18.5561C10.5713 18.5561 11.3458 20.8578 13.073 22.7575C14.8002 24.6571 17.2093 25.8569 17.2093 25.8569C17.2093 25.8569 19.623 24.5043 21.1111 22.7575C22.5992 21.0106 23.4284 18.5561 23.4284 18.5561V9.14258C23.4284 9.14258 20.5185 9.6953 17.2093 9.6953C13.9002 9.6953 10.5713 9.14258 10.5713 9.14258Z" stroke="white" stroke-width="2"/>
</svg>
