<?xml version="1.0" encoding="utf-8"?>
<!-- Generator: Adobe Illustrator 22.0.1, SVG Export Plug-In . SVG Version: 6.00 Build 0)  -->
<svg width="38" height="41" viewBox="0 0 38 41" fill="none" xmlns="http://www.w3.org/2000/svg">
<path fill-rule="evenodd" clip-rule="evenodd" d="M19 41C29.4647 41 38 31.8262 38 20.5C38 9.17384 29.4647 0 19 0C8.53528 0 0 9.20912 0 20.5C0 31.7909 8.53528 41 19 41ZM19 3C27.8176 3 35 10.8557 35 20.5C35 30.1443 27.8176 38 19 38C10.1824 38 3 30.1443 3 20.5C3 10.8557 10.1824 3 19 3ZM12.3913 27.5826C12.6522 27.8609 12.9783 28 13.337 28C13.6957 28 14.0217 27.8609 14.2826 27.5826L19.5 22.0174L24.7174 27.5826C24.9783 27.8609 25.3043 28 25.663 28C26.0217 28 26.3478 27.8609 26.6087 27.5826C27.1304 27.0261 27.1304 26.1217 26.6087 25.5652L21.3913 20L26.6087 14.4348C27.1304 13.8783 27.1304 12.9739 26.6087 12.4174C26.087 11.8609 25.2391 11.8609 24.7174 12.4174L19.5 17.9826L14.2826 12.4174C13.7609 11.8609 12.913 11.8609 12.3913 12.4174C11.8696 12.9739 11.8696 13.8783 12.3913 14.4348L17.6087 20L12.3913 25.5652C11.8696 26.1217 11.8696 27.0261 12.3913 27.5826Z" fill="black"/>
</svg>
