<svg width="31" height="30" viewBox="0 0 31 30" fill="none" xmlns="http://www.w3.org/2000/svg">
<path fill-rule="evenodd" clip-rule="evenodd" d="M15.0197 30C23.2814 30 30.0197 23.2874 30.0197 15C30.0197 6.71256 23.2814 0 15.0197 0C6.75813 0 0.0197449 6.73838 0.0197449 15C0.0197449 23.2616 6.75813 30 15.0197 30ZM15.0224 2.19514C22.1617 2.19514 27.977 7.94322 27.977 15C27.977 22.0568 22.1617 27.8049 15.0224 27.8049C7.88316 27.8049 2.06789 22.0568 2.06789 15C2.06789 7.94322 7.88316 2.19514 15.0224 2.19514ZM9.88013 20.1824C10.0817 20.386 10.3337 20.4878 10.6109 20.4878C10.888 20.4878 11.14 20.386 11.3416 20.1824L15.3732 16.1103L19.4048 20.1824C19.6064 20.386 19.8584 20.4878 20.1356 20.4878C20.4127 20.4878 20.6647 20.386 20.8663 20.1824C21.2695 19.7752 21.2695 19.1135 20.8663 18.7063L16.8347 14.6342L20.8663 10.562C21.2695 10.1548 21.2695 9.49312 20.8663 9.08591C20.4631 8.6787 19.808 8.6787 19.4048 9.08591L15.3732 13.158L11.3416 9.08591C10.9384 8.6787 10.2833 8.6787 9.88013 9.08591C9.47697 9.49312 9.47697 10.1548 9.88013 10.562L13.9118 14.6342L9.88013 18.7063C9.47697 19.1135 9.47697 19.7752 9.88013 20.1824Z" fill="black"/>
</svg>
