<?xml version="1.0" encoding="utf-8"?>
<!-- Generator: Adobe Illustrator 22.0.1, SVG Export Plug-In . SVG Version: 6.00 Build 0)  -->
<svg width="97" height="97" viewBox="0 0 97 97" fill="none" xmlns="http://www.w3.org/2000/svg">
<path fill-rule="evenodd" clip-rule="evenodd" d="M28.8312 45.459C27.4983 44.1283 25.3325 44.1283 23.9996 45.459C22.6668 46.7897 22.6668 48.9521 23.9996 50.2828L39.7439 66.002C40.4103 66.6673 41.2433 67 42.1596 67C42.2429 67 42.2429 67 42.3262 67C43.2426 66.9168 44.1589 66.501 44.8253 65.7524L84.2275 18.5951C85.3938 17.1812 85.2272 15.0188 83.811 13.7712C82.3949 12.6069 80.229 12.7732 78.9795 14.1871L41.9097 58.5167L28.8312 45.459ZM74.1078 7.40952C54.8807 -4.61381 30.2199 -1.77497 14.1695 14.2561C-4.72317 33.1261 -4.72317 63.9359 14.1695 82.8058C23.6158 92.2408 36.0716 97 48.4438 97C60.816 97 73.2718 92.2408 82.7181 82.8058C98.8522 66.6912 101.611 41.9766 89.4894 22.7727C88.4863 21.1862 86.3964 20.6853 84.808 21.6872C83.2197 22.6892 82.7181 24.7765 83.7213 26.363C94.1708 42.895 91.7465 64.1028 77.8696 77.9631C61.652 94.1612 35.1521 94.1612 18.9345 77.9631C2.71687 61.765 2.71687 35.297 18.9345 19.0989C32.8114 5.32214 53.9612 2.90077 70.5131 13.1707C72.1015 14.1726 74.1914 13.6717 75.1945 12.0853C76.1977 10.4988 75.6961 8.41146 74.1078 7.40952Z" fill="black"/>
</svg>
