<?xml version="1.0" encoding="utf-8"?>
<!-- Generator: Adobe Illustrator 22.0.1, SVG Export Plug-In . SVG Version: 6.00 Build 0)  -->
<svg width="97" height="97" viewBox="0 0 97 97" fill="none" xmlns="http://www.w3.org/2000/svg">
<path fill-rule="evenodd" clip-rule="evenodd" d="M48.5 0C21.7414 0 0 21.7227 0 48.4582C0 61.7425 5.35172 73.7735 14.0483 82.5461C14.0483 82.5461 14.1319 82.6296 14.1319 82.7132C14.1319 82.7132 14.2155 82.7132 14.2155 82.7967C22.9957 91.5693 35.1207 97 48.5 97C75.2586 97 97 75.2773 97 48.5418C97 21.8062 75.2586 0 48.5 0ZM6.77328 48.4582C6.77328 25.4823 25.5043 6.85099 48.5 6.85099C58.7853 6.85099 68.1509 10.6107 75.4259 16.7097L16.7241 75.3609C10.5362 68.0922 6.77328 58.7347 6.77328 48.4582ZM48.5 90.149C38.2147 90.149 28.7655 86.3893 21.4905 80.2067L80.1922 21.5556C86.3802 28.8243 90.1431 38.2653 90.1431 48.5418C90.2267 71.4341 71.4957 90.149 48.5 90.149Z" fill="black"/>
</svg>
