<?xml version="1.0" encoding="utf-8"?>
<!-- Generator: Adobe Illustrator 22.0.1, SVG Export Plug-In . SVG Version: 6.00 Build 0)  -->
<svg width="62" height="62" viewBox="0 0 62 62" fill="none" xmlns="http://www.w3.org/2000/svg">
<path fill-rule="evenodd" clip-rule="evenodd" d="M57.6707 2.18949V15.1662C52.1655 5.92765 42.1707 0 31 0C13.8966 0 0 13.8846 0 31.0267C0 48.1688 13.8966 62 31 62C48.1034 62 62 48.1154 62 31.0267C62 29.7985 61.0379 28.8372 59.8086 28.8372C58.5793 28.8372 57.6172 29.7985 57.6172 31.0267C57.6172 45.7123 45.6448 57.6744 30.9466 57.6744C16.2483 57.6744 4.32931 45.6589 4.32931 30.9733C4.32931 16.2877 16.3017 4.32558 31 4.32558C41.5293 4.32558 50.9362 10.4668 55.2121 19.8656H39.8724C38.6431 19.8656 37.681 20.8269 37.681 22.0551C37.681 23.2834 38.6431 24.2446 39.8724 24.2446H59.8086C61.0379 24.2446 62 23.2834 62 22.0551V2.13609C62 0.96124 61.0379 0 59.8621 0C58.6328 0 57.6707 0.96124 57.6707 2.18949Z" fill="black"/>
</svg>
