<?xml version="1.0" encoding="utf-8"?>
<!-- Generator: Adobe Illustrator 22.0.1, SVG Export Plug-In . SVG Version: 6.00 Build 0)  -->
<svg width="52" height="52" viewBox="0 0 52 52" fill="none" xmlns="http://www.w3.org/2000/svg">
<path fill-rule="evenodd" clip-rule="evenodd" d="M26 51C39.8071 51 51 39.8071 51 26C51 12.1929 39.8071 1 26 1C12.1929 1 1 12.1929 1 26C1 39.8071 12.1929 51 26 51Z" fill="black" stroke="white"/>
<path fill-rule="evenodd" clip-rule="evenodd" d="M26 48C38.1503 48 48 38.1503 48 26C48 13.8497 38.1503 4 26 4C13.8497 4 4 13.8497 4 26C4 38.1503 13.8497 48 26 48Z" fill="black" stroke="white"/>
<path fill-rule="evenodd" clip-rule="evenodd" d="M26 44C35.9411 44 44 35.9411 44 26C44 16.0589 35.9411 8 26 8C16.0589 8 8 16.0589 8 26C8 35.9411 16.0589 44 26 44Z" fill="black" stroke="white"/>
<path fill-rule="evenodd" clip-rule="evenodd" d="M26 40C33.732 40 40 33.732 40 26C40 18.268 33.732 12 26 12C18.268 12 12 18.268 12 26C12 33.732 18.268 40 26 40Z" fill="black" stroke="white"/>
<path fill-rule="evenodd" clip-rule="evenodd" d="M26 36C31.5228 36 36 31.5228 36 26C36 20.4772 31.5228 16 26 16C20.4772 16 16 20.4772 16 26C16 31.5228 20.4772 36 26 36Z" fill="black" stroke="white"/>
<path fill-rule="evenodd" clip-rule="evenodd" d="M26 31C28.7614 31 31 28.7614 31 26C31 23.2386 28.7614 21 26 21C23.2386 21 21 23.2386 21 26C21 28.7614 23.2386 31 26 31Z" fill="black" stroke="white"/>
</svg>
