<?xml version="1.0" encoding="utf-8"?>
<!-- Generator: Adobe Illustrator 22.0.1, SVG Export Plug-In . SVG Version: 6.00 Build 0)  -->
<svg width="98" height="98" viewBox="0 0 98 98" fill="none" xmlns="http://www.w3.org/2000/svg">
<path fill-rule="evenodd" clip-rule="evenodd" d="M49 98C76.062 98 98 76.062 98 49C98 21.938 76.062 0 49 0C21.938 0 0 21.938 0 49C0 76.062 21.938 98 49 98Z" fill="white"/>
<mask id="mask0" mask-type="alpha" maskUnits="userSpaceOnUse" x="0" y="0" width="98" height="98">
<path fill-rule="evenodd" clip-rule="evenodd" d="M49 98C76.062 98 98 76.062 98 49C98 21.938 76.062 0 49 0C21.938 0 0 21.938 0 49C0 76.062 21.938 98 49 98Z" fill="white"/>
</mask>
<g mask="url(#mask0)">
<path fill-rule="evenodd" clip-rule="evenodd" d="M49 88C66.9753 88 82.0355 75.5191 85.9876 58.7506C86.6497 55.9412 87 53.0115 87 50C87 29.0132 69.9868 12 49 12C28.0132 12 11 29.0132 11 50C11 70.9868 28.0132 88 49 88Z" fill="black" stroke="black"/>
<path fill-rule="evenodd" clip-rule="evenodd" d="M49 82C66.6731 82 81 67.6731 81 50C81 32.3269 66.6731 18 49 18C31.3269 18 17 32.3269 17 50C17 67.6731 31.3269 82 49 82Z" fill="#A85490"/>
</g>
<rect x="41.5" y="41.5" width="15" height="15" stroke="white"/>
<rect x="49" y="38.3934" width="15" height="15" transform="rotate(45 49 38.3934)" stroke="white"/>
<rect x="34.5" y="34.5" width="29" height="29" stroke="white"/>
<rect x="49" y="28.4938" width="29" height="29" transform="rotate(45 49 28.4938)" stroke="white"/>
<rect x="45.5" y="45.5" width="7" height="7" stroke="white"/>
<rect x="49" y="44.0502" width="7" height="7" transform="rotate(45 49 44.0502)" stroke="white"/>
</svg>
