<?xml version="1.0" encoding="utf-8"?>
<!-- Generator: Adobe Illustrator 22.0.1, SVG Export Plug-In . SVG Version: 6.00 Build 0)  -->
<svg width="98" height="98" viewBox="0 0 98 98" fill="none" xmlns="http://www.w3.org/2000/svg">
<path fill-rule="evenodd" clip-rule="evenodd" d="M49 98C76.062 98 98 76.062 98 49C98 21.938 76.062 0 49 0C21.938 0 0 21.938 0 49C0 76.062 21.938 98 49 98Z" fill="white"/>
<mask id="mask0" mask-type="alpha" maskUnits="userSpaceOnUse" x="0" y="0" width="98" height="98">
<path fill-rule="evenodd" clip-rule="evenodd" d="M49 98C76.062 98 98 76.062 98 49C98 21.938 76.062 0 49 0C21.938 0 0 21.938 0 49C0 76.062 21.938 98 49 98Z" fill="white"/>
</mask>
<g mask="url(#mask0)">
<path fill-rule="evenodd" clip-rule="evenodd" d="M49 88C66.9753 88 82.0355 75.5191 85.9876 58.7506C86.6497 55.9412 87 53.0115 87 50C87 29.0132 69.9868 12 49 12C28.0132 12 11 29.0132 11 50C11 70.9868 28.0132 88 49 88Z" fill="black" stroke="black"/>
<path fill-rule="evenodd" clip-rule="evenodd" d="M49 82C66.6731 82 81 67.6731 81 50C81 32.3269 66.6731 18 49 18C31.3269 18 17 32.3269 17 50C17 67.6731 31.3269 82 49 82Z" fill="#FF8E6F"/>
</g>
<path fill-rule="evenodd" clip-rule="evenodd" d="M40.5 41.3198C41.8807 41.3198 43 40.2005 43 38.8198C43 37.4391 41.8807 36.3198 40.5 36.3198C39.1193 36.3198 38 37.4391 38 38.8198C38 40.2005 39.1193 41.3198 40.5 41.3198Z" stroke="white"/>
<path fill-rule="evenodd" clip-rule="evenodd" d="M38.5 50.3198C39.8807 50.3198 41 49.2005 41 47.8198C41 46.4391 39.8807 45.3198 38.5 45.3198C37.1193 45.3198 36 46.4391 36 47.8198C36 49.2005 37.1193 50.3198 38.5 50.3198Z" stroke="white"/>
<path fill-rule="evenodd" clip-rule="evenodd" d="M29.5 53.3198C30.8807 53.3198 32 52.2005 32 50.8198C32 49.4391 30.8807 48.3198 29.5 48.3198C28.1193 48.3198 27 49.4391 27 50.8198C27 52.2005 28.1193 53.3198 29.5 53.3198Z" stroke="white"/>
<path fill-rule="evenodd" clip-rule="evenodd" d="M46.5 47.3198C47.8807 47.3198 49 46.2005 49 44.8198C49 43.4391 47.8807 42.3198 46.5 42.3198C45.1193 42.3198 44 43.4391 44 44.8198C44 46.2005 45.1193 47.3198 46.5 47.3198Z" stroke="white"/>
<path fill-rule="evenodd" clip-rule="evenodd" d="M31.5 44C32.8807 44 34 42.8807 34 41.5C34 40.1193 32.8807 39 31.5 39C30.1193 39 29 40.1193 29 41.5C29 42.8807 30.1193 44 31.5 44Z" fill="white" stroke="white"/>
<path fill-rule="evenodd" clip-rule="evenodd" d="M44.5 56C45.8807 56 47 54.8807 47 53.5C47 52.1193 45.8807 51 44.5 51C43.1193 51 42 52.1193 42 53.5C42 54.8807 43.1193 56 44.5 56Z" stroke="white"/>
<path fill-rule="evenodd" clip-rule="evenodd" d="M44.5 64.6802C45.8807 64.6802 47 63.5609 47 62.1802C47 60.7995 45.8807 59.6802 44.5 59.6802C43.1193 59.6802 42 60.7995 42 62.1802C42 63.5609 43.1193 64.6802 44.5 64.6802Z" stroke="white"/>
<path fill-rule="evenodd" clip-rule="evenodd" d="M34.5 67C35.8807 67 37 65.8807 37 64.5C37 63.1193 35.8807 62 34.5 62C33.1193 62 32 63.1193 32 64.5C32 65.8807 33.1193 67 34.5 67Z" stroke="white"/>
<path fill-rule="evenodd" clip-rule="evenodd" d="M57.3911 54.9316C57.6071 56.2953 58.8877 57.2257 60.2514 57.0097C61.6151 56.7937 62.5456 55.5131 62.3296 54.1494C62.1136 52.7857 60.833 51.8553 59.4693 52.0713C58.1055 52.2873 57.1751 53.5679 57.3911 54.9316Z" fill="white" stroke="white"/>
<path fill-rule="evenodd" clip-rule="evenodd" d="M64.3911 58.2514C64.6071 59.6151 65.8877 60.5455 67.2514 60.3295C68.6151 60.1135 69.5456 58.8329 69.3296 57.4692C69.1136 56.1055 67.833 55.1751 66.4693 55.3911C65.1055 55.6071 64.1751 56.8877 64.3911 58.2514Z" stroke="white"/>
<path fill-rule="evenodd" clip-rule="evenodd" d="M33.3911 32.8506C33.6071 34.2143 34.8877 35.1448 36.2514 34.9288C37.6151 34.7128 38.5456 33.4322 38.3296 32.0685C38.1136 30.7048 36.833 29.7743 35.4693 29.9903C34.1055 30.2063 33.1751 31.4869 33.3911 32.8506Z" stroke="white"/>
<path fill-rule="evenodd" clip-rule="evenodd" d="M51.3911 29.2514C51.6071 30.6151 52.8877 31.5455 54.2514 31.3295C55.6151 31.1135 56.5456 29.8329 56.3296 28.4692C56.1136 27.1055 54.833 26.1751 53.4693 26.3911C52.1055 26.6071 51.1751 27.8877 51.3911 29.2514Z" stroke="white"/>
<path fill-rule="evenodd" clip-rule="evenodd" d="M51.5 61C52.8807 61 54 59.8807 54 58.5C54 57.1193 52.8807 56 51.5 56C50.1193 56 49 57.1193 49 58.5C49 59.8807 50.1193 61 51.5 61Z" stroke="white"/>
<path fill-rule="evenodd" clip-rule="evenodd" d="M37.5 59.3198C38.8807 59.3198 40 58.2005 40 56.8198C40 55.4391 38.8807 54.3198 37.5 54.3198C36.1193 54.3198 35 55.4391 35 56.8198C35 58.2005 36.1193 59.3198 37.5 59.3198Z" fill="white" stroke="white"/>
<path fill-rule="evenodd" clip-rule="evenodd" d="M59.1118 46.2514C59.3278 47.6151 60.6084 48.5455 61.9721 48.3295C63.3358 48.1135 64.2663 46.8329 64.0503 45.4692C63.8343 44.1055 62.5537 43.1751 61.19 43.3911C59.8262 43.6071 58.8958 44.8877 59.1118 46.2514Z" stroke="white"/>
<path fill-rule="evenodd" clip-rule="evenodd" d="M55.3911 63.2514C55.6071 64.6151 56.8877 65.5455 58.2514 65.3295C59.6151 65.1135 60.5456 63.8329 60.3296 62.4692C60.1136 61.1055 58.833 60.1751 57.4693 60.3911C56.1055 60.6071 55.1751 61.8877 55.3911 63.2514Z" stroke="white"/>
<path fill-rule="evenodd" clip-rule="evenodd" d="M62.8325 65.2514C63.0485 66.6151 64.3291 67.5455 65.6928 67.3295C67.0565 67.1135 67.987 65.8329 67.771 64.4692C67.555 63.1055 66.2744 62.1751 64.9107 62.3911C63.5469 62.6071 62.6165 63.8877 62.8325 65.2514Z" stroke="white"/>
<path fill-rule="evenodd" clip-rule="evenodd" d="M26.3911 59.2514C26.6071 60.6151 27.8877 61.5455 29.2514 61.3295C30.6151 61.1135 31.5456 59.8329 31.3296 58.4692C31.1136 57.1055 29.833 56.1751 28.4693 56.3911C27.1055 56.6071 26.1751 57.8877 26.3911 59.2514Z" stroke="white"/>
<path fill-rule="evenodd" clip-rule="evenodd" d="M48.3911 68.2514C48.6071 69.6151 49.8877 70.5455 51.2514 70.3295C52.6151 70.1135 53.5456 68.8329 53.3296 67.4692C53.1136 66.1055 51.833 65.1751 50.4693 65.3911C49.1055 65.6071 48.1751 66.8877 48.3911 68.2514Z" fill="white" stroke="white"/>
<path fill-rule="evenodd" clip-rule="evenodd" d="M39.3911 70.2514C39.6071 71.6151 40.8877 72.5455 42.2514 72.3295C43.6151 72.1135 44.5456 70.8329 44.3296 69.4692C44.1136 68.1055 42.833 67.1751 41.4693 67.3911C40.1055 67.6071 39.1751 68.8877 39.3911 70.2514Z" stroke="white"/>
<path fill-rule="evenodd" clip-rule="evenodd" d="M56.1118 70.2514C56.3278 71.6151 57.6084 72.5455 58.9721 72.3295C60.3358 72.1135 61.2663 70.8329 61.0503 69.4692C60.8343 68.1055 59.5537 67.1751 58.19 67.3911C56.8262 67.6071 55.8958 68.8877 56.1118 70.2514Z" stroke="white"/>
<path fill-rule="evenodd" clip-rule="evenodd" d="M64.3911 40.2514C64.6071 41.6151 65.8877 42.5455 67.2514 42.3295C68.6151 42.1135 69.5456 40.8329 69.3296 39.4692C69.1136 38.1055 67.833 37.1751 66.4693 37.3911C65.1055 37.6071 64.1751 38.8877 64.3911 40.2514Z" stroke="white"/>
<path fill-rule="evenodd" clip-rule="evenodd" d="M42.3911 30.8506C42.6071 32.2143 43.8877 33.1448 45.2514 32.9288C46.6151 32.7128 47.5456 31.4322 47.3296 30.0685C47.1136 28.7048 45.833 27.7743 44.4693 27.9903C43.1055 28.2063 42.1751 29.4869 42.3911 30.8506Z" stroke="white"/>
<path fill-rule="evenodd" clip-rule="evenodd" d="M66.1118 50.2514C66.3278 51.6151 67.6084 52.5455 68.9721 52.3295C70.3358 52.1135 71.2663 50.8329 71.0503 49.4692C70.8343 48.1055 69.5537 47.1751 68.19 47.3911C66.8262 47.6071 65.8958 48.8877 66.1118 50.2514Z" stroke="white"/>
<path fill-rule="evenodd" clip-rule="evenodd" d="M52.3911 42.9316C52.6071 44.2953 53.8877 45.2257 55.2514 45.0097C56.6151 44.7937 57.5456 43.5131 57.3296 42.1494C57.1136 40.7857 55.833 39.8553 54.4693 40.0713C53.1055 40.2873 52.1751 41.5679 52.3911 42.9316Z" stroke="white"/>
<path fill-rule="evenodd" clip-rule="evenodd" d="M47.3911 37.5712C47.6071 38.9349 48.8877 39.8653 50.2514 39.6494C51.6151 39.4334 52.5456 38.1528 52.3296 36.789C52.1136 35.4253 50.833 34.4949 49.4693 34.7109C48.1055 34.9269 47.1751 36.2075 47.3911 37.5712Z" fill="white" stroke="white"/>
<path fill-rule="evenodd" clip-rule="evenodd" d="M50.3911 50.2514C50.6071 51.6151 51.8877 52.5455 53.2514 52.3295C54.6151 52.1135 55.5456 50.8329 55.3296 49.4692C55.1136 48.1055 53.833 47.1751 52.4693 47.3911C51.1055 47.6071 50.1751 48.8877 50.3911 50.2514Z" fill="white" stroke="white"/>
<path fill-rule="evenodd" clip-rule="evenodd" d="M57.3911 35.2514C57.6071 36.6151 58.8877 37.5455 60.2514 37.3295C61.6151 37.1135 62.5456 35.8329 62.3296 34.4692C62.1136 33.1055 60.833 32.1751 59.4693 32.3911C58.1055 32.6071 57.1751 33.8877 57.3911 35.2514Z" fill="white" stroke="white"/>
</svg>
