<?xml version="1.0" encoding="utf-8"?>
<!-- Generator: Adobe Illustrator 22.0.1, SVG Export Plug-In . SVG Version: 6.00 Build 0)  -->
<svg width="76" height="76" viewBox="0 0 76 76" fill="none" xmlns="http://www.w3.org/2000/svg">
<path fill-rule="evenodd" clip-rule="evenodd" d="M38 76C55.9753 76 71.0355 63.5191 74.9876 46.7506C75.6497 43.9412 76 41.0115 76 38C76 17.0132 58.9868 0 38 0C17.0132 0 0 17.0132 0 38C0 58.9868 17.0132 76 38 76Z" fill="black"/>
<path fill-rule="evenodd" clip-rule="evenodd" d="M38 70C55.6731 70 70 55.6731 70 38C70 20.3269 55.6731 6 38 6C20.3269 6 6 20.3269 6 38C6 55.6731 20.3269 70 38 70Z" fill="#989898"/>
<path fill-rule="evenodd" clip-rule="evenodd" d="M29.5 27.3199C30.8807 27.3199 32 26.2006 32 24.8199C32 23.4391 30.8807 22.3199 29.5 22.3199C28.1193 22.3199 27 23.4391 27 24.8199C27 26.2006 28.1193 27.3199 29.5 27.3199Z" stroke="white"/>
<path fill-rule="evenodd" clip-rule="evenodd" d="M27.5 36.3199C28.8807 36.3199 30 35.2006 30 33.8199C30 32.4391 28.8807 31.3199 27.5 31.3199C26.1193 31.3199 25 32.4391 25 33.8199C25 35.2006 26.1193 36.3199 27.5 36.3199Z" stroke="white"/>
<path fill-rule="evenodd" clip-rule="evenodd" d="M18.5 39.3199C19.8807 39.3199 21 38.2006 21 36.8199C21 35.4391 19.8807 34.3199 18.5 34.3199C17.1193 34.3199 16 35.4391 16 36.8199C16 38.2006 17.1193 39.3199 18.5 39.3199Z" stroke="white"/>
<path fill-rule="evenodd" clip-rule="evenodd" d="M35.5 33.3199C36.8807 33.3199 38 32.2006 38 30.8199C38 29.4391 36.8807 28.3199 35.5 28.3199C34.1193 28.3199 33 29.4391 33 30.8199C33 32.2006 34.1193 33.3199 35.5 33.3199Z" stroke="white"/>
<path fill-rule="evenodd" clip-rule="evenodd" d="M20.5 30C21.8807 30 23 28.8807 23 27.5C23 26.1193 21.8807 25 20.5 25C19.1193 25 18 26.1193 18 27.5C18 28.8807 19.1193 30 20.5 30Z" fill="white" stroke="white"/>
<path fill-rule="evenodd" clip-rule="evenodd" d="M33.5 42C34.8807 42 36 40.8807 36 39.5C36 38.1193 34.8807 37 33.5 37C32.1193 37 31 38.1193 31 39.5C31 40.8807 32.1193 42 33.5 42Z" stroke="white"/>
<path fill-rule="evenodd" clip-rule="evenodd" d="M33.5 50.6801C34.8807 50.6801 36 49.5609 36 48.1801C36 46.7994 34.8807 45.6801 33.5 45.6801C32.1193 45.6801 31 46.7994 31 48.1801C31 49.5609 32.1193 50.6801 33.5 50.6801Z" stroke="white"/>
<path fill-rule="evenodd" clip-rule="evenodd" d="M23.5 53C24.8807 53 26 51.8807 26 50.5C26 49.1193 24.8807 48 23.5 48C22.1193 48 21 49.1193 21 50.5C21 51.8807 22.1193 53 23.5 53Z" stroke="white"/>
<path fill-rule="evenodd" clip-rule="evenodd" d="M46.3911 40.9315C46.6071 42.2953 47.8877 43.2257 49.2514 43.0097C50.6151 42.7937 51.5456 41.5131 51.3296 40.1494C51.1136 38.7857 49.833 37.8552 48.4693 38.0712C47.1055 38.2872 46.1751 39.5678 46.3911 40.9315Z" fill="white" stroke="white"/>
<path fill-rule="evenodd" clip-rule="evenodd" d="M53.3911 44.2514C53.6071 45.6151 54.8877 46.5455 56.2514 46.3295C57.6151 46.1135 58.5456 44.8329 58.3296 43.4692C58.1136 42.1055 56.833 41.1751 55.4693 41.3911C54.1055 41.6071 53.1751 42.8877 53.3911 44.2514Z" stroke="white"/>
<path fill-rule="evenodd" clip-rule="evenodd" d="M22.3911 18.8506C22.6071 20.2143 23.8877 21.1448 25.2514 20.9288C26.6151 20.7128 27.5456 19.4322 27.3296 18.0685C27.1136 16.7048 25.833 15.7743 24.4693 15.9903C23.1055 16.2063 22.1751 17.4869 22.3911 18.8506Z" stroke="white"/>
<path fill-rule="evenodd" clip-rule="evenodd" d="M40.3911 15.2514C40.6071 16.6151 41.8877 17.5455 43.2514 17.3295C44.6151 17.1135 45.5456 15.8329 45.3296 14.4692C45.1136 13.1055 43.833 12.1751 42.4693 12.3911C41.1055 12.6071 40.1751 13.8877 40.3911 15.2514Z" stroke="white"/>
<path fill-rule="evenodd" clip-rule="evenodd" d="M40.5 47C41.8807 47 43 45.8807 43 44.5C43 43.1193 41.8807 42 40.5 42C39.1193 42 38 43.1193 38 44.5C38 45.8807 39.1193 47 40.5 47Z" stroke="white"/>
<path fill-rule="evenodd" clip-rule="evenodd" d="M26.5 45.3199C27.8807 45.3199 29 44.2006 29 42.8199C29 41.4391 27.8807 40.3199 26.5 40.3199C25.1193 40.3199 24 41.4391 24 42.8199C24 44.2006 25.1193 45.3199 26.5 45.3199Z" fill="white" stroke="white"/>
<path fill-rule="evenodd" clip-rule="evenodd" d="M48.1118 32.2514C48.3278 33.6151 49.6084 34.5455 50.9721 34.3295C52.3358 34.1135 53.2663 32.8329 53.0503 31.4692C52.8343 30.1055 51.5537 29.1751 50.19 29.3911C48.8262 29.6071 47.8958 30.8877 48.1118 32.2514Z" stroke="white"/>
<path fill-rule="evenodd" clip-rule="evenodd" d="M44.3911 49.2514C44.6071 50.6151 45.8877 51.5455 47.2514 51.3295C48.6151 51.1135 49.5456 49.8329 49.3296 48.4692C49.1136 47.1055 47.833 46.1751 46.4693 46.3911C45.1055 46.6071 44.1751 47.8877 44.3911 49.2514Z" stroke="white"/>
<path fill-rule="evenodd" clip-rule="evenodd" d="M51.8325 51.2514C52.0485 52.6151 53.3291 53.5455 54.6928 53.3295C56.0565 53.1135 56.987 51.8329 56.771 50.4692C56.555 49.1055 55.2744 48.1751 53.9107 48.3911C52.5469 48.6071 51.6165 49.8877 51.8325 51.2514Z" stroke="white"/>
<path fill-rule="evenodd" clip-rule="evenodd" d="M15.3911 45.2514C15.6071 46.6151 16.8877 47.5455 18.2514 47.3295C19.6151 47.1135 20.5456 45.8329 20.3296 44.4692C20.1136 43.1055 18.833 42.1751 17.4693 42.3911C16.1055 42.6071 15.1751 43.8877 15.3911 45.2514Z" stroke="white"/>
<path fill-rule="evenodd" clip-rule="evenodd" d="M37.3911 54.2514C37.6071 55.6151 38.8877 56.5455 40.2514 56.3295C41.6151 56.1135 42.5456 54.8329 42.3296 53.4692C42.1136 52.1055 40.833 51.1751 39.4693 51.3911C38.1055 51.6071 37.1751 52.8877 37.3911 54.2514Z" fill="white" stroke="white"/>
<path fill-rule="evenodd" clip-rule="evenodd" d="M28.3911 56.2514C28.6071 57.6151 29.8877 58.5455 31.2514 58.3295C32.6151 58.1135 33.5456 56.8329 33.3296 55.4692C33.1136 54.1055 31.833 53.1751 30.4693 53.3911C29.1055 53.6071 28.1751 54.8877 28.3911 56.2514Z" stroke="white"/>
<path fill-rule="evenodd" clip-rule="evenodd" d="M45.1118 56.2514C45.3278 57.6151 46.6084 58.5455 47.9721 58.3295C49.3358 58.1135 50.2663 56.8329 50.0503 55.4692C49.8343 54.1055 48.5537 53.1751 47.19 53.3911C45.8262 53.6071 44.8958 54.8877 45.1118 56.2514Z" stroke="white"/>
<path fill-rule="evenodd" clip-rule="evenodd" d="M53.3911 26.2514C53.6071 27.6151 54.8877 28.5455 56.2514 28.3295C57.6151 28.1135 58.5456 26.8329 58.3296 25.4692C58.1136 24.1055 56.833 23.1751 55.4693 23.3911C54.1055 23.6071 53.1751 24.8877 53.3911 26.2514Z" stroke="white"/>
<path fill-rule="evenodd" clip-rule="evenodd" d="M31.3911 16.8506C31.6071 18.2143 32.8877 19.1448 34.2514 18.9288C35.6151 18.7128 36.5456 17.4322 36.3296 16.0685C36.1136 14.7048 34.833 13.7743 33.4693 13.9903C32.1055 14.2063 31.1751 15.4869 31.3911 16.8506Z" stroke="white"/>
<path fill-rule="evenodd" clip-rule="evenodd" d="M55.1118 36.2514C55.3278 37.6151 56.6084 38.5455 57.9721 38.3295C59.3358 38.1135 60.2663 36.8329 60.0503 35.4692C59.8343 34.1055 58.5537 33.1751 57.19 33.3911C55.8262 33.6071 54.8958 34.8877 55.1118 36.2514Z" stroke="white"/>
<path fill-rule="evenodd" clip-rule="evenodd" d="M41.3911 28.9315C41.6071 30.2953 42.8877 31.2257 44.2514 31.0097C45.6151 30.7937 46.5456 29.5131 46.3296 28.1494C46.1136 26.7857 44.833 25.8552 43.4693 26.0712C42.1055 26.2872 41.1751 27.5678 41.3911 28.9315Z" stroke="white"/>
<path fill-rule="evenodd" clip-rule="evenodd" d="M36.3911 23.5712C36.6071 24.935 37.8877 25.8654 39.2514 25.6494C40.6151 25.4334 41.5456 24.1528 41.3296 22.7891C41.1136 21.4254 39.833 20.4949 38.4693 20.7109C37.1055 20.9269 36.1751 22.2075 36.3911 23.5712Z" fill="white" stroke="white"/>
<path fill-rule="evenodd" clip-rule="evenodd" d="M39.3911 36.2514C39.6071 37.6151 40.8877 38.5455 42.2514 38.3295C43.6151 38.1135 44.5456 36.8329 44.3296 35.4692C44.1136 34.1055 42.833 33.1751 41.4693 33.3911C40.1055 33.6071 39.1751 34.8877 39.3911 36.2514Z" fill="white" stroke="white"/>
<path fill-rule="evenodd" clip-rule="evenodd" d="M46.3911 21.2514C46.6071 22.6151 47.8877 23.5455 49.2514 23.3295C50.6151 23.1135 51.5456 21.8329 51.3296 20.4692C51.1136 19.1055 49.833 18.1751 48.4693 18.3911C47.1055 18.6071 46.1751 19.8877 46.3911 21.2514Z" fill="white" stroke="white"/>
</svg>
