<?xml version="1.0" encoding="utf-8"?>
<!-- Generator: Adobe Illustrator 22.0.1, SVG Export Plug-In . SVG Version: 6.00 Build 0)  -->
<svg width="52" height="52" viewBox="0 0 52 52" fill="none" xmlns="http://www.w3.org/2000/svg">
<path fill-rule="evenodd" clip-rule="evenodd" d="M26 51C39.8071 51 51 39.8071 51 26C51 12.1929 39.8071 1 26 1C12.1929 1 1 12.1929 1 26C1 39.8071 12.1929 51 26 51Z" fill="black" stroke="white"/>
<path fill-rule="evenodd" clip-rule="evenodd" d="M25.5 43C35.165 43 43 35.165 43 25.5C43 15.835 35.165 8 25.5 8C15.835 8 8 15.835 8 25.5C8 35.165 15.835 43 25.5 43Z" fill="black" stroke="white"/>
<path fill-rule="evenodd" clip-rule="evenodd" d="M25.3189 9L41.6379 25.3189L25.3189 41.6379L9 25.3189L25.3189 9Z" fill="black" stroke="white"/>
</svg>
