<?xml version="1.0" encoding="utf-8"?>
<!-- Generator: Adobe Illustrator 22.0.1, SVG Export Plug-In . SVG Version: 6.00 Build 0)  -->
<svg width="78" height="78" viewBox="0 0 78 78" fill="none" xmlns="http://www.w3.org/2000/svg">
<path fill-rule="evenodd" clip-rule="evenodd" d="M39 77C56.9753 77 72.0355 64.5191 75.9876 47.7506C76.6497 44.9412 77 42.0115 77 39C77 18.0132 59.9868 1 39 1C18.0132 1 1 18.0132 1 39C1 59.9868 18.0132 77 39 77Z" fill="black" stroke="black"/>
<path fill-rule="evenodd" clip-rule="evenodd" d="M39 71C56.6731 71 71 56.6731 71 39C71 21.3269 56.6731 7 39 7C21.3269 7 7 21.3269 7 39C7 56.6731 21.3269 71 39 71Z" fill="#989898"/>
<path fill-rule="evenodd" clip-rule="evenodd" d="M48.7822 32.5028C49.2142 35.2302 51.7754 37.091 54.5029 36.6591C57.2303 36.2271 59.0911 33.6659 58.6591 30.9384C58.2271 28.211 55.6659 26.3502 52.9385 26.7822C50.2111 27.2142 48.3503 29.7754 48.7822 32.5028Z" stroke="white"/>
<path fill-rule="evenodd" clip-rule="evenodd" d="M48.7822 55.5028C49.2142 58.2302 51.7754 60.091 54.5029 59.6591C57.2303 59.2271 59.0911 56.6659 58.6591 53.9384C58.2271 51.211 55.6659 49.3502 52.9385 49.7822C50.2111 50.2142 48.3503 52.7754 48.7822 55.5028Z" stroke="white"/>
<path fill-rule="evenodd" clip-rule="evenodd" d="M20.7822 46.5028C21.2142 49.2302 23.7754 51.091 26.5029 50.6591C29.2303 50.2271 31.0911 47.6659 30.6591 44.9384C30.2271 42.211 27.6659 40.3502 24.9385 40.7822C22.2111 41.2142 20.3503 43.7754 20.7822 46.5028Z" stroke="white"/>
<path fill-rule="evenodd" clip-rule="evenodd" d="M20.7822 22.5028C21.2142 25.2302 23.7754 27.091 26.5029 26.6591C29.2303 26.2271 31.0911 23.6659 30.6591 20.9384C30.2271 18.211 27.6659 16.3502 24.9385 16.7822C22.2111 17.2142 20.3503 19.7754 20.7822 22.5028Z" stroke="white"/>
<path d="M35.6617 23.3886L45.848 28.3569" stroke="white" stroke-linecap="square"/>
<path d="M45.8354 28.103L44.4541 24.0916" stroke="white" stroke-linecap="square" stroke-linejoin="round"/>
<path d="M45.6686 28.7495L41.5738 29.4225" stroke="white" stroke-linecap="square" stroke-linejoin="round"/>
<path d="M34.6617 49.3886L44.848 54.3569" stroke="white" stroke-linecap="square"/>
<path d="M44.8354 54.103L43.4541 50.0916" stroke="white" stroke-linecap="square" stroke-linejoin="round"/>
<path d="M44.6686 54.7495L40.5738 55.4225" stroke="white" stroke-linecap="square" stroke-linejoin="round"/>
<path d="M46.0912 36.3886L35.9049 41.3569" stroke="white" stroke-linecap="square"/>
<path d="M35.9176 41.103L37.2988 37.0916" stroke="white" stroke-linecap="square" stroke-linejoin="round"/>
<path d="M36.0843 41.7495L40.1792 42.4225" stroke="white" stroke-linecap="square" stroke-linejoin="round"/>
</svg>
