<?xml version="1.0" encoding="utf-8"?>
<!-- Generator: Adobe Illustrator 22.0.1, SVG Export Plug-In . SVG Version: 6.00 Build 0)  -->
<svg width="24" height="38" viewBox="0 0 24 38" fill="none" xmlns="http://www.w3.org/2000/svg">
<path fill-rule="evenodd" clip-rule="evenodd" d="M5.06122 24.0656C5.97551 24.0656 6.82449 23.8033 7.57551 23.377L14.5633 30.3934C14.1388 31.1475 13.8776 32 13.8776 32.918C13.8776 35.7377 16.1633 38 18.9388 38C21.7143 38 24 35.7049 24 32.918C24 30.0984 21.7143 27.8361 18.9388 27.8361C18.0245 27.8361 17.1755 28.0984 16.4245 28.5246L9.46939 21.5082C9.89388 20.7541 10.1551 19.9016 10.1551 18.9836C10.1551 18.0656 9.89388 17.2131 9.46939 16.459L16.4245 9.47541C17.1755 9.90164 18.0245 10.1639 18.9388 10.1639C21.7469 10.1639 24 7.86885 24 5.08197C24 2.29508 21.7143 0 18.9388 0C16.1633 0 13.8776 2.29508 13.8776 5.08197C13.8776 6 14.1388 6.85246 14.5633 7.60656L7.57551 14.5574C6.85714 14.1311 5.97551 13.9016 5.06122 13.9016C2.25306 13.9016 0 16.1967 0 18.9836C0 21.7705 2.28571 24.0656 5.06122 24.0656ZM18.5 30C19.8851 30 21 31.1149 21 32.5C21 33.8851 19.8851 35 18.5 35C17.1149 35 16 33.8851 16 32.5C16 31.1149 17.1149 30 18.5 30ZM18.5 3C19.8851 3 21 4.11486 21 5.5C21 6.88514 19.8851 8 18.5 8C17.1149 8 16 6.88514 16 5.5C16 4.11486 17.1149 3 18.5 3ZM5.5 16C6.88514 16 8 17.1149 8 18.5C8 19.8851 6.88514 21 5.5 21C4.11486 21 3 19.8851 3 18.5C3 17.1149 4.14865 16 5.5 16Z" fill="white"/>
</svg>
