<?xml version="1.0" encoding="utf-8"?>
<!-- Generator: Adobe Illustrator 22.0.1, SVG Export Plug-In . SVG Version: 6.00 Build 0)  -->
<svg width="167" height="72" viewBox="0 0 167 72" fill="none" xmlns="http://www.w3.org/2000/svg">
<rect width="167" height="72" rx="13" fill="#5C50CA"/>
<path d="M144 24.8207C143.991 24.4115 143.691 24.0675 143.289 24.0047H143.272H143.137C143.039 23.9984 142.94 23.9984 142.843 24.0047C142.791 24.0047 142.74 24.008 142.689 24.0137C141.527 24.0439 140.375 24.232 139.264 24.5727C137.961 25.0262 136.789 25.7943 135.849 26.8093V24.9625C135.849 24.9625 135.84 24.9493 135.836 24.9493C135.83 24.49 135.459 24.12 135.003 24.1183H131.839C131.38 24.12 131.006 24.4925 131 24.9551V47.1558C131.001 47.6217 131.376 47.9988 131.839 48H134.988C135.452 48.0008 135.829 47.623 135.83 47.1558V35.6015C135.83 33.1305 136.495 31.7273 137.814 30.5867C139.02 29.547 140.796 28.4324 143.109 28.248C143.129 28.2492 143.15 28.2492 143.17 28.248C143.622 28.2348 143.982 27.8627 143.983 27.4075V24.8207H144Z" fill="white"/>
<mask id="mask0" mask-type="alpha" maskUnits="userSpaceOnUse" x="87" y="24" width="19" height="32">
<path fill-rule="evenodd" clip-rule="evenodd" d="M87.2684 24.3182H105.918V55H87.2684V24.3182Z" fill="white"/>
</mask>
<g mask="url(#mask0)">
<path fill-rule="evenodd" clip-rule="evenodd" d="M94.636 24.3182C97.9816 24.3182 100.693 25.0673 102.698 26.547C104.831 28.1467 105.916 30.447 105.917 33.3853V38.0432C105.917 40.8936 104.82 43.1634 102.661 44.7937C100.631 46.3576 97.9343 47.1497 94.6433 47.1497H92.7861C92.3802 47.2057 92.0779 47.5471 92.0775 47.9505V54.1346V54.1887C92.0754 54.6358 91.7072 54.9982 91.252 55.0002H88.0919C87.6367 54.999 87.2684 54.6362 87.2684 54.1887V25.1298V25.1282C87.2684 24.681 87.6371 24.3182 88.0919 24.3182H94.636ZM99.3937 41.551C100.447 40.7787 100.983 39.5984 100.983 38.0432V33.3817C100.983 31.8265 100.46 30.6549 99.3937 29.8739C98.3276 29.0926 96.6985 28.6951 94.5466 28.6951H92.8956H92.8937C92.4388 28.6951 92.0702 29.0576 92.0702 29.5047V41.9202C92.0702 42.363 92.4308 42.7238 92.8811 42.7318H94.5466C96.6985 42.7318 98.3406 42.3232 99.3937 41.551Z" fill="white"/>
</g>
<path d="M146 40.6597C146 42.8198 146.408 44.4328 147.21 45.4563C148.04 46.4814 149.427 47 151.32 47H155.036C155.457 47.0008 155.799 46.6422 155.799 46.1988V46.1972V46.1775V43.4807V43.4614C155.799 43.0176 155.458 42.6582 155.038 42.6582H155.036H151.482C151.02 42.6582 150.712 42.5128 150.545 42.2176C150.449 42.0099 150.4 41.6138 150.4 41.0451V28.8922C150.402 28.4922 150.682 28.1537 151.057 28.0981H155.237H155.245C155.663 28.0934 155.999 27.7355 156 27.2949V24.5291C156 24.0862 155.66 23.7264 155.24 23.7244H151.057C150.681 23.6688 150.401 23.3295 150.4 22.9287V16.8012C150.399 16.3586 150.059 16 149.639 16H146.775C146.354 16.0012 146.013 16.3594 146.01 16.8032V40.6597H146Z" fill="white"/>
<path fill-rule="evenodd" clip-rule="evenodd" d="M108.001 37.7524C108.007 43.4095 112.704 47.9944 118.501 48C124.296 47.9932 128.993 43.4092 128.999 37.7524V34.3833C129 34.3387 129 34.2942 129 34.2497C129 34.2039 129 34.1581 128.999 34.1122C128.922 28.453 124.16 23.9261 118.361 24.0009C112.563 24.0757 107.924 28.7242 108.001 34.3833V37.7524ZM112.931 34.3833C112.935 31.3827 115.426 28.9515 118.501 28.9476C121.575 28.9515 124.066 31.3827 124.07 34.3833V37.7524C124.07 40.7545 121.577 43.188 118.501 43.188C115.425 43.188 112.931 40.7545 112.931 37.7524V34.3833Z" fill="white"/>
<path d="M63 24.808C63.002 24.3618 63.3736 24.0008 63.832 24H67.0993C67.5577 23.9988 67.9305 24.3598 67.9313 24.8061C67.9313 24.8069 67.9313 24.8072 67.9313 24.808V37.044C67.9313 40.0394 70.4252 42.4674 73.5018 42.4674C76.5784 42.4674 79.0724 40.0394 79.0724 37.044V24.808C79.0732 24.3642 79.4411 24.0036 79.8971 24H83.1643C83.6239 23.9996 83.9971 24.361 84 24.808V37.044C83.8468 42.69 79.0215 47.1459 73.2223 46.9963C67.6391 46.8527 63.1475 42.4801 63 37.044V24.808Z" fill="white"/>
<mask id="mask1" mask-type="alpha" maskUnits="userSpaceOnUse" x="14" y="15" width="44" height="41">
<path fill-rule="evenodd" clip-rule="evenodd" d="M14 15.2262H57.6155V55H14V15.2262Z" fill="white"/>
</mask>
<g mask="url(#mask1)">
<path fill-rule="evenodd" clip-rule="evenodd" d="M37.2421 15.9189L57.3354 45.2251V45.2275C57.4368 45.3753 57.5123 45.5381 57.5593 45.7092C57.7986 46.5834 57.251 47.4777 56.3354 47.7063L36.2377 54.9475C35.9532 55.0177 35.655 55.0177 35.3705 54.9475L15.2797 47.7063C15.0994 47.6614 14.9281 47.5887 14.7726 47.4912C13.9818 46.9949 13.7622 45.9802 14.2812 45.2251L34.3804 15.9189C35.0104 14.9953 36.608 14.9953 37.2421 15.9189ZM35.8066 28.8018C39.5483 28.8022 42.5818 31.701 42.5809 35.2761C42.5804 38.8516 39.5466 41.7496 35.8049 41.7491C32.0645 41.7488 29.0319 38.8521 29.0306 35.2777C29.0323 31.7026 32.0649 28.8047 35.8066 28.8018ZM35.8066 48.4116C29.0619 48.4116 21.8928 46.5463 21.8928 43.0831C21.8928 41.001 24.4828 39.4961 28.0131 38.6263C28.1031 38.8165 28.2008 39.0034 28.3058 39.1863C28.472 39.476 28.6565 39.756 28.858 40.0247C25.4064 40.7977 23.444 42.0679 23.444 43.0831C23.444 43.5345 23.8386 44.0377 24.5781 44.5247C24.5997 44.4656 24.6259 44.4081 24.6562 44.3529C24.6967 44.2795 24.7445 44.21 24.7994 44.1455C25.5547 43.2173 27.8452 42.454 31.0743 42.0737C33.9407 43.9034 37.6777 43.9034 40.5441 42.0737C43.7612 42.4525 46.048 43.2116 46.8123 44.1345C46.8269 44.1514 46.8412 44.1688 46.855 44.1865C46.8693 44.205 46.8831 44.2238 46.8962 44.243C46.9568 44.3308 47.0056 44.4258 47.0411 44.5255C47.7815 44.0386 48.1753 43.5312 48.1753 43.0831C48.1753 42.0679 46.212 40.7977 42.7616 40.0239C43.0909 39.5859 43.3738 39.1173 43.6053 38.6255C47.1373 39.4953 49.7278 41.001 49.7278 43.0831C49.7295 46.5463 42.5553 48.4116 35.8066 48.4116Z" fill="white"/>
</g>
</svg>
