<?xml version="1.0" encoding="utf-8"?>
<!-- Generator: Adobe Illustrator 22.0.1, SVG Export Plug-In . SVG Version: 6.00 Build 0)  -->
<svg width="78" height="78" viewBox="0 0 78 78" fill="none" xmlns="http://www.w3.org/2000/svg">
<path fill-rule="evenodd" clip-rule="evenodd" d="M39 77C56.9753 77 72.0355 64.5191 75.9876 47.7506C76.6497 44.9412 77 42.0115 77 39C77 18.0132 59.9868 1 39 1C18.0132 1 1 18.0132 1 39C1 59.9868 18.0132 77 39 77Z" fill="black" stroke="black"/>
<path fill-rule="evenodd" clip-rule="evenodd" d="M39 71C56.6731 71 71 56.6731 71 39C71 21.3269 56.6731 7 39 7C21.3269 7 7 21.3269 7 39C7 56.6731 21.3269 71 39 71Z" fill="#989898"/>
<path fill-rule="evenodd" clip-rule="evenodd" d="M40.0307 17L37.06 33.5789L32.9646 26.6163V33.5789L22 29.8066L32.9646 39.4777L22 48.4429L32.9646 44.2907V51.2336L37.06 44.2907L40.0307 59.6456L42.4671 44.2907L46.9127 51.2336L46.4592 43.6053L57 48.4429L48.243 39.4777L57 29.8066L45.9012 33.5789L46.9127 26.6163L42.4671 33.5789L40.0307 17Z" fill="#989898" stroke="white"/>
</svg>
