<?xml version="1.0" encoding="utf-8"?>
<!-- Generator: Adobe Illustrator 22.0.1, SVG Export Plug-In . SVG Version: 6.00 Build 0)  -->
<svg width="76" height="76" viewBox="0 0 76 76" fill="none" xmlns="http://www.w3.org/2000/svg">
<path fill-rule="evenodd" clip-rule="evenodd" d="M38 76C55.9753 76 71.0355 63.5191 74.9876 46.7506C75.6497 43.9412 76 41.0115 76 38C76 17.0132 58.9868 0 38 0C17.0132 0 0 17.0132 0 38C0 58.9868 17.0132 76 38 76Z" fill="black"/>
<path fill-rule="evenodd" clip-rule="evenodd" d="M38 70C55.6731 70 70 55.6731 70 38C70 20.3269 55.6731 6 38 6C20.3269 6 6 20.3269 6 38C6 55.6731 20.3269 70 38 70Z" fill="#989898"/>
<path d="M16.5 29.5L38.1504 36.8808L60.5 44.5" stroke="white" stroke-linecap="square"/>
<path fill-rule="evenodd" clip-rule="evenodd" d="M36.9558 37.1778L32.2051 47.8497H42.2094L36.9558 37.1778Z" stroke="white"/>
</svg>
