<?xml version="1.0" encoding="utf-8"?>
<!-- Generator: Adobe Illustrator 22.0.1, SVG Export Plug-In . SVG Version: 6.00 Build 0)  -->
<svg width="78" height="78" viewBox="0 0 78 78" fill="none" xmlns="http://www.w3.org/2000/svg">
<path fill-rule="evenodd" clip-rule="evenodd" d="M39 77C56.9753 77 72.0355 64.5191 75.9876 47.7506C76.6497 44.9412 77 42.0115 77 39C77 18.0132 59.9868 1 39 1C18.0132 1 1 18.0132 1 39C1 59.9868 18.0132 77 39 77Z" fill="black" stroke="black"/>
<path fill-rule="evenodd" clip-rule="evenodd" d="M39 71C56.6731 71 71 56.6731 71 39C71 21.3269 56.6731 7 39 7C21.3269 7 7 21.3269 7 39C7 56.6731 21.3269 71 39 71Z" fill="#989898"/>
<path fill-rule="evenodd" clip-rule="evenodd" d="M24 22V43.9649C24 43.9649 25.8071 49.3356 29.8373 53.7681C33.8674 58.2006 39.4888 61 39.4888 61C39.4888 61 45.1208 57.8441 48.5929 53.7681C52.065 49.692 54 43.9649 54 43.9649V22C54 22 47.2102 23.2897 39.4888 23.2897C31.7674 23.2897 24 22 24 22Z" stroke="white" stroke-width="2"/>
</svg>
