<?xml version="1.0" encoding="utf-8"?>
<!-- Generator: Adobe Illustrator 22.0.1, SVG Export Plug-In . SVG Version: 6.00 Build 0)  -->
<svg width="159" height="159" viewBox="0 0 159 159" fill="none" xmlns="http://www.w3.org/2000/svg">
<path fill-rule="evenodd" clip-rule="evenodd" d="M79.5 157C122.302 157 157 122.302 157 79.5C157 36.6979 122.302 2 79.5 2C36.6979 2 2 36.6979 2 79.5C2 122.302 36.6979 157 79.5 157Z" stroke="black" stroke-width="3"/>
<path fill-rule="evenodd" clip-rule="evenodd" d="M79.3768 65.0205C90.4606 65.0205 99.4507 56.0451 99.4507 44.9795C99.4507 33.9139 90.4606 25 79.3768 25C68.2931 25 59.303 33.9754 59.303 44.9795C59.303 55.9836 68.2931 65.0205 79.3768 65.0205ZM79.3768 30.2254C87.5049 30.2254 94.1552 36.8648 94.1552 44.9795C94.1552 53.0943 87.5049 59.7336 79.3768 59.7336C71.2488 59.7336 64.5985 53.0943 64.5985 44.9795C64.5985 36.8648 71.2488 30.2254 79.3768 30.2254ZM44.6478 96.3115H114.352C115.83 96.3115 117 95.1434 117 93.668C117 79.8361 105.732 68.5246 91.8153 68.5246H67.1847C53.33 68.5246 42 79.7746 42 93.668C42 95.1434 43.17 96.3115 44.6478 96.3115ZM67.1847 73.8115H91.8153C101.914 73.8115 110.227 81.3115 111.52 91.0246H47.4803C48.7734 81.373 57.0862 73.8115 67.1847 73.8115Z" fill="black"/>
<path fill-rule="evenodd" clip-rule="evenodd" d="M80.0112 109C72.845 109 67 114.828 67 122C67 129.172 72.8226 135 80.0112 135C87.1774 135 93 129.172 93 122C93 114.828 87.1774 109 80.0112 109ZM80 133C73.9379 133 69 128.062 69 122C69 115.938 73.9379 111 80 111C86.0621 111 91 115.938 91 122C91 128.062 86.0621 133 80 133ZM85.2013 121.221H80.7987V116.799C80.7987 116.351 80.4481 116 80 116C79.5519 116 79.2013 116.351 79.2013 116.799V121.201H74.7987C74.3506 121.201 74 121.552 74 122C74 122.448 74.3506 122.799 74.7987 122.799H79.2013V127.201C79.2013 127.649 79.5519 128 80 128C80.4481 128 80.7987 127.649 80.7987 127.201V122.799H85.2013C85.6494 122.799 86 122.448 86 122C86 121.552 85.6494 121.221 85.2013 121.221Z" fill="black"/>
</svg>
