<?xml version="1.0" encoding="utf-8"?>
<!-- Generator: Adobe Illustrator 22.0.1, SVG Export Plug-In . SVG Version: 6.00 Build 0)  -->
<svg width="38" height="21" viewBox="0 0 38 21" fill="none" xmlns="http://www.w3.org/2000/svg">
<path fill-rule="evenodd" clip-rule="evenodd" d="M19 0C9.72852 0 0.750859 9.12019 0.391753 9.52404C0.130584 9.79327 0 10.1298 0 10.5C0 10.8702 0.130584 11.2067 0.391753 11.476C0.783505 11.8798 9.72852 21 19 21C28.2715 21 37.2491 11.8798 37.6082 11.476C37.8694 11.2067 38 10.8702 38 10.5C38 10.1298 37.8694 9.79327 37.6082 9.52404C37.2491 9.12019 28.3041 0 19 0ZM19.5 18C13.0873 18 6.48129 12.7174 4 10.5C6.48129 8.28261 13.0873 3 19.5 3C25.9127 3 32.5187 8.28261 35 10.5C32.5187 12.7174 25.9127 18 19.5 18ZM14 10C14 12.7365 16.2297 15 19 15C21.7703 15 24 12.7703 24 10C24 7.22973 21.7703 5 19 5C16.2297 5 14 7.26351 14 10ZM21 10C21 11.0909 20.1212 12 19 12C17.9091 12 17 11.1212 17 10C17 8.87879 17.8788 8 19 8C20.0909 8.0303 21 8.90909 21 10Z" fill="black"/>
</svg>
