<svg width="81" height="123" viewBox="0 0 81 123" fill="none" xmlns="http://www.w3.org/2000/svg">
<path fill-rule="evenodd" clip-rule="evenodd" d="M29.6337 122.682C30.1626 122.894 30.6915 123 31.2204 123C32.5956 123 33.9707 122.364 34.817 121.093L80.1967 55.3957C81.1488 54.1242 81.2545 52.3228 80.5141 50.9453C79.7736 49.5678 78.2927 48.6141 76.706 48.6141L48.5684 48.4022L56.7135 5.16936C57.1366 3.26203 56.0788 1.24874 54.2806 0.401039C52.4823 -0.446663 50.3667 0.0831505 49.0973 1.67259L0.96727 62.3893C-0.0905331 63.6608 -0.302094 65.4622 0.438368 66.9457C1.17883 68.4292 2.65975 69.3828 4.35224 69.3828L35.4517 69.5947L27.095 117.914C26.6719 119.927 27.7297 121.94 29.6337 122.682ZM13 60.8692L44.6699 21L38.7582 52.1148C38.547 53.3805 38.8637 54.6462 39.7083 55.7009C40.5528 56.6502 41.714 57.283 42.9808 57.283L68 57.3885L38.547 100L44.3532 66.0374C44.5643 64.7717 44.2476 63.506 43.4031 62.5567C42.6641 61.6075 41.5029 61.0801 40.2361 61.0801L13 60.8692Z" fill="black"/>
</svg>
