<?xml version="1.0" encoding="utf-8"?>
<!-- Generator: Adobe Illustrator 22.0.1, SVG Export Plug-In . SVG Version: 6.00 Build 0)  -->
<svg width="17" height="17" viewBox="0 0 17 17" fill="none" xmlns="http://www.w3.org/2000/svg">
<path fill-rule="evenodd" clip-rule="evenodd" d="M0.438898 1.62256L5.70568 0.0262383C5.72031 0.0262383 5.73494 0.0262383 5.73494 0.0262383C5.7642 0.0262383 5.77883 0.0115932 5.80809 0.0115932C5.83735 0.0115932 5.85198 0.0115932 5.88124 0.0115932C5.9105 0.0115932 5.92513 0.0115932 5.95439 0.0115932C5.98365 0.0115932 5.99828 0.0115932 6.02754 0.0262383C6.04217 0.0262383 6.0568 0.0262383 6.0568 0.0262383L11.1334 1.57863L16.2246 0.0262383C16.4002 -0.0323424 16.605 0.0115932 16.7513 0.114109C16.8976 0.231271 17 0.407013 17 0.5974V14.8032C17 15.0668 16.8244 15.3012 16.5757 15.3744L11.3089 16.9707C11.2504 16.9854 11.1919 17 11.1334 17C11.0749 17 11.0164 16.9854 10.9578 16.9707L5.86661 15.433L0.775387 16.9707C0.716867 16.9854 0.658346 17 0.599827 17C0.468157 17 0.351118 16.9561 0.248709 16.8828C0.102409 16.7657 0 16.5899 0 16.3995V2.19372C0 1.93011 0.175558 1.71043 0.438898 1.62256ZM12 16L16 14.701V1L12 2.29897V16ZM6 14.6856L11 16V2.31443L6 1V14.6856ZM1 16L5 14.701V1L1 2.29897V16Z" fill="black"/>
</svg>
