<?xml version="1.0" encoding="utf-8"?>
<!-- Generator: Adobe Illustrator 22.0.1, SVG Export Plug-In . SVG Version: 6.00 Build 0)  -->
<svg width="30" height="32" viewBox="0 0 30 32" fill="none" xmlns="http://www.w3.org/2000/svg">
<path fill-rule="evenodd" clip-rule="evenodd" d="M15.0129 0C6.74419 0 0 7.07804 0 15.7895C0 24.5009 6.71835 31.5789 15.0129 31.5789C23.2817 31.5789 30 24.5009 30 15.7895C30 7.07804 23.2817 0 15.0129 0ZM15 29.4737C7.83567 29.4737 2 23.3309 2 15.7895C2 8.24808 7.83567 2.10526 15 2.10526C22.1643 2.10526 28 8.24808 28 15.7895C28 23.3309 22.1643 29.4737 15 29.4737ZM21.9351 14.6958H16.0649V8.48941C16.0649 7.86056 15.5974 7.36842 15 7.36842C14.4026 7.36842 13.9351 7.86056 13.9351 8.48941V14.6685H8.06493C7.46753 14.6685 7 15.1606 7 15.7895C7 16.4183 7.46753 16.9105 8.06493 16.9105H13.9351V23.0895C13.9351 23.7184 14.4026 24.2105 15 24.2105C15.5974 24.2105 16.0649 23.7184 16.0649 23.0895V16.9105H21.9351C22.5325 16.9105 23 16.4183 23 15.7895C23 15.1606 22.5325 14.6958 21.9351 14.6958Z" fill="black"/>
</svg>
